<?xml version="1.0" encoding="iso-8859-1"?>
<!-- Generator: Adobe Illustrator 19.0.0, SVG Export Plug-In . SVG Version: 6.00 Build 0)  -->
<svg xmlns="http://www.w3.org/2000/svg" xmlns:xlink="http://www.w3.org/1999/xlink" version="1.1" id="Capa_1" x="0px" y="0px" viewBox="0 0 512 512" style="enable-background:new 0 0 512 512;" xml:space="preserve" width="512px" height="512px">
<g>
	<g>
		<path d="M471.341,479.317l-56.747-198.571c-4.194-14.662-17.604-24.763-32.853-24.747H130.178    c-15.218,0.022-28.583,10.115-32.768,24.747L40.664,479.403c-0.642,2.26-0.97,4.598-0.975,6.948    C39.662,500.489,51.101,511.973,65.24,512h381.44c2.416,0.006,4.821-0.331,7.143-0.999    C467.41,507.089,475.253,492.904,471.341,479.317z M447.021,494.933H65.581c-0.887,0.033-1.774-0.072-2.629-0.313    c-4.537-1.276-7.181-5.988-5.905-10.525l56.747-198.656c2.092-7.316,8.775-12.362,16.384-12.373h251.563    c7.609,0.011,14.292,5.058,16.384,12.373l57.429,198.656c0.24,0.855,0.346,1.741,0.313,2.629    C455.691,491.434,451.731,495.109,447.021,494.933z" fill="#595959"/>
	</g>
</g>
<g>
	<g>
		<path d="M255.96,290.133c-51.841,0-93.867,42.026-93.867,93.867s42.026,93.867,93.867,93.867s93.867-42.026,93.867-93.867    S307.801,290.133,255.96,290.133z M255.96,460.8c-42.415,0-76.8-34.385-76.8-76.8s34.385-76.8,76.8-76.8    c42.415,0,76.8,34.385,76.8,76.8S298.375,460.8,255.96,460.8z" fill="#595959"/>
	</g>
</g>
<g>
	<g>
		<path d="M255.96,290.133c-4.713,0-8.533,3.82-8.533,8.533v17.067c0,4.713,3.82,8.533,8.533,8.533s8.533-3.82,8.533-8.533v-17.067    C264.493,293.954,260.673,290.133,255.96,290.133z" fill="#595959"/>
	</g>
</g>
<g>
	<g>
		<path d="M255.96,443.733c-4.713,0-8.533,3.821-8.533,8.533v17.067c0,4.713,3.82,8.533,8.533,8.533s8.533-3.82,8.533-8.533v-17.067    C264.493,447.554,260.673,443.733,255.96,443.733z" fill="#595959"/>
	</g>
</g>
<g>
	<g>
		<path d="M223.789,323.157l-9.813-13.995c-2.71-3.865-8.039-4.801-11.904-2.091c-3.865,2.71-4.801,8.039-2.091,11.904l9.813,13.995    c1.592,2.294,4.205,3.665,6.997,3.669v-0.085c1.734-0.003,3.425-0.534,4.85-1.522C225.514,332.346,226.475,327.03,223.789,323.157    z" fill="#595959"/>
	</g>
</g>
<g>
	<g>
		<path d="M311.938,449.195l-9.813-13.995c-0.312-0.599-0.695-1.159-1.139-1.668c-3.1-3.55-8.49-3.915-12.04-0.815    c-3.55,3.1-3.915,8.49-0.815,12.04l9.813,13.995c1.592,2.294,4.205,3.665,6.997,3.669v0.171c1.734-0.003,3.425-0.534,4.85-1.522    C313.663,458.384,314.625,453.067,311.938,449.195z" fill="#595959"/>
	</g>
</g>
<g>
	<g>
		<path d="M194.69,352.597l-16.043-5.803c-0.15-0.059-0.301-0.114-0.454-0.164c-4.475-1.477-9.301,0.953-10.778,5.429    c-1.477,4.475,0.953,9.301,5.429,10.778l16.043,5.803c0.93,0.338,1.912,0.511,2.901,0.512c3.587-0.004,6.788-2.251,8.011-5.622    C201.408,359.1,199.12,354.205,194.69,352.597z" fill="#595959"/>
	</g>
</g>
<g>
	<g>
		<path d="M339.074,405.163l-16.043-5.803c-0.15-0.059-0.301-0.114-0.454-0.164c-4.475-1.477-9.301,0.953-10.778,5.429    c-1.477,4.475,0.953,9.301,5.429,10.778l16.043,5.803c0.93,0.338,1.912,0.511,2.901,0.512c3.586-0.004,6.788-2.251,8.011-5.622    C345.792,411.665,343.504,406.771,339.074,405.163z" fill="#595959"/>
	</g>
</g>
<g>
	<g>
		<path d="M199.04,397.496c-1.999-4.268-7.079-6.108-11.347-4.109l-16.384,4.181c-4.713,0.613-8.037,4.93-7.424,9.643    c0.613,4.713,4.93,8.037,9.643,7.424c0.763-0.098,1.509-0.299,2.219-0.597l16.469-4.437c0.941-0.1,1.858-0.356,2.715-0.757    C199.199,406.844,201.038,401.764,199.04,397.496z" fill="#595959"/>
	</g>
</g>
<g>
	<g>
		<path d="M346.833,359.023c-1.381-4.506-6.154-7.039-10.66-5.658l-16.469,4.437c-4.713,0.613-8.037,4.93-7.424,9.643    s4.93,8.037,9.643,7.424c0.776,0.02,1.551-0.066,2.304-0.256l16.384-4.779c0.19-0.044,0.378-0.095,0.565-0.152    C345.681,368.301,348.214,363.529,346.833,359.023z" fill="#595959"/>
	</g>
</g>
<g>
	<g>
		<path d="M217.645,429.653c-3.605-3.04-8.992-2.581-12.032,1.024l-11.008,13.056c-1.385,1.577-2.141,3.609-2.122,5.707    c0.041,4.713,3.895,8.5,8.608,8.458c2.538,0.004,4.946-1.122,6.571-3.072l11.008-13.141    C221.709,438.08,221.25,432.693,217.645,429.653z" fill="#595959"/>
	</g>
</g>
<g>
	<g>
		<path d="M316.333,312.192c-3.605-3.063-9.011-2.624-12.075,0.981l-11.008,13.056c-1.28,1.537-1.98,3.475-1.977,5.475    c0.008,4.713,3.834,8.527,8.547,8.519c2.481,0.022,4.848-1.037,6.485-2.901l11.008-13.056    C320.378,320.661,319.938,315.255,316.333,312.192z" fill="#595959"/>
	</g>
</g>
<g>
	<g>
		<path d="M255.96,341.333c-4.713,0-8.533,3.82-8.533,8.533V384c0,4.713,3.82,8.533,8.533,8.533s8.533-3.82,8.533-8.533v-34.133    C264.493,345.154,260.673,341.333,255.96,341.333z" fill="#595959"/>
	</g>
</g>
<g>
	<g>
		<path d="M307.036,191.021c-0.802-4.644-5.216-7.759-9.861-6.957c-27.276,4.707-55.156,4.707-82.432,0    c-0.52-0.09-1.048-0.131-1.576-0.123c-4.712,0.069-8.477,3.944-8.408,8.657v71.936c0,4.713,3.821,8.533,8.533,8.533h85.333    c4.713,0,8.533-3.82,8.533-8.533v-71.936C307.167,192.069,307.126,191.542,307.036,191.021z M290.093,256h-68.267v-53.504    c22.655,3.025,45.612,3.025,68.267,0V256z" fill="#595959"/>
	</g>
</g>
<g>
	<g>
		<path d="M494.893,0H17.026c-1.895,0.008-3.775,0.331-5.564,0.956C2.565,4.067-2.127,13.801,0.984,22.699    c33.241,92.944,113.687,160.987,210.859,178.347c14.573,2.5,29.332,3.756,44.117,3.755c14.757-0.004,29.487-1.26,44.032-3.755    c97.228-17.32,177.744-85.366,211.029-178.347c0.635-1.816,0.958-3.726,0.956-5.649C511.968,7.624,504.319-0.01,494.893,0z     M297.176,184.149c-27.275,4.711-55.157,4.711-82.432,0C123.641,167.947,48.196,104.191,17.026,17.067h477.867    C463.678,104.159,388.255,167.897,297.176,184.149z" fill="#595959"/>
	</g>
</g>
<g>
	<g>
		<path d="M459.778,35.371c-4.124-2.356-9.377-0.924-11.733,3.2c-32.673,58.979-90.201,100.08-156.587,111.872    c-4.713,0.401-8.209,4.546-7.808,9.259c0.401,4.713,4.546,8.209,9.259,7.808l1.451-0.171    c71.44-12.652,133.378-56.817,168.619-120.235C465.335,42.98,463.902,37.727,459.778,35.371z" fill="#595959"/>
	</g>
</g>
<g>
	<g>
		<path d="M142.466,292.608c-0.37-0.407-0.802-0.752-1.28-1.024c-0.436-0.338-0.926-0.598-1.451-0.768    c-0.509-0.258-1.056-0.431-1.621-0.512c-1.635-0.346-3.337-0.166-4.864,0.512c-1.047,0.406-2.004,1.015-2.816,1.792    c-0.017,0.016-0.033,0.033-0.049,0.049c-3.319,3.346-3.297,8.749,0.049,12.068c0.83,0.752,1.783,1.358,2.816,1.792    c1.026,0.437,2.128,0.669,3.243,0.683l1.621-0.171c0.565-0.082,1.112-0.255,1.621-0.512c0.524-0.17,1.015-0.43,1.451-0.768    l1.28-1.024c0.017-0.016,0.033-0.033,0.049-0.049C145.835,301.33,145.813,295.927,142.466,292.608z" fill="#595959"/>
	</g>
</g>
<g>
	<g>
		<path d="M170.626,290.133h-8.533c-4.713,0-8.533,3.82-8.533,8.533c0,4.713,3.82,8.533,8.533,8.533h8.533    c4.713,0,8.533-3.82,8.533-8.533C179.159,293.953,175.339,290.133,170.626,290.133z" fill="#595959"/>
	</g>
</g>
<g>
	<g>
		<path d="M383.96,187.733h-256c-4.713,0-8.533,3.82-8.533,8.533s3.82,8.533,8.533,8.533h256c4.713,0,8.533-3.82,8.533-8.533    S388.673,187.733,383.96,187.733z" fill="#595959"/>
	</g>
</g>
<g>
</g>
<g>
</g>
<g>
</g>
<g>
</g>
<g>
</g>
<g>
</g>
<g>
</g>
<g>
</g>
<g>
</g>
<g>
</g>
<g>
</g>
<g>
</g>
<g>
</g>
<g>
</g>
<g>
</g>
</svg>
