<?xml version="1.0" standalone="no"?>
<!DOCTYPE svg PUBLIC "-//W3C//DTD SVG 20010904//EN"
 "http://www.w3.org/TR/2001/REC-SVG-20010904/DTD/svg10.dtd">
<svg version="1.0" xmlns="http://www.w3.org/2000/svg"
 width="1506.000000pt" height="1506.000000pt" viewBox="0 0 1506.000000 1506.000000"
 preserveAspectRatio="xMidYMid meet">
<metadata>
Created by potrace 1.11, written by Peter Selinger 2001-2013
</metadata>
<g transform="translate(0.000000,1506.000000) scale(0.100000,-0.100000)"
fill="#000000" stroke="none">
<path d="M9933 15024 c3 -6 -3 -16 -15 -23 -11 -7 -17 -8 -14 -3 3 5 -3 12
-14 15 -13 3 -18 1 -13 -6 4 -6 0 -8 -10 -4 -9 3 -24 -1 -33 -11 -10 -9 -20
-16 -23 -15 -3 0 -5 -4 -3 -9 2 -6 -8 -4 -22 6 -24 15 -26 15 -36 -4 -6 -11
-18 -20 -26 -20 -8 0 -13 -4 -9 -9 3 -5 -4 -12 -15 -16 -11 -4 -18 -11 -15
-16 3 -5 -1 -6 -9 -3 -8 3 -23 1 -33 -5 -11 -6 -13 -11 -5 -11 7 0 10 -5 7
-10 -4 -6 -12 -8 -18 -4 -7 3 -3 -2 8 -12 20 -16 20 -16 -2 -11 -12 3 -22 2
-21 -2 2 -22 -4 -32 -17 -28 -8 4 -17 1 -21 -5 -4 -7 -3 -8 4 -4 7 4 12 3 12
-3 0 -5 -5 -13 -11 -17 -8 -4 -7 -9 2 -15 11 -7 10 -9 -5 -9 -12 0 -16 -5 -13
-14 3 -8 -2 -20 -11 -28 -16 -12 -16 -11 -2 7 14 19 14 19 -3 6 -14 -11 -15
-17 -5 -28 9 -11 8 -13 -3 -11 -8 2 -13 -3 -11 -9 1 -7 -3 -13 -9 -13 -5 0 -7
-4 -4 -10 3 -5 0 -10 -7 -10 -10 0 -10 -2 1 -9 11 -7 10 -11 -5 -20 -17 -11
-16 -11 6 -7 14 3 19 3 12 0 -6 -3 -10 -10 -7 -14 3 -5 -3 -7 -14 -5 -15 3
-18 -1 -13 -17 3 -13 1 -19 -5 -15 -12 7 -11 -23 2 -42 6 -11 4 -13 -10 -7
-15 5 -16 4 -5 -9 11 -13 10 -15 -1 -10 -10 4 -15 -2 -16 -15 -1 -11 1 -18 5
-16 4 3 8 -4 8 -14 0 -15 -3 -17 -15 -7 -10 8 -13 8 -8 1 4 -7 1 -17 -7 -23
-8 -7 -12 -21 -8 -33 3 -14 1 -19 -6 -14 -7 4 -12 2 -12 -3 0 -6 4 -11 9 -11
5 0 11 -6 14 -14 4 -10 0 -14 -13 -11 -11 2 -23 -1 -26 -7 -4 -7 -2 -8 4 -4 7
4 12 2 12 -4 0 -17 -30 -24 -43 -10 -9 10 -9 11 3 5 13 -8 13 -7 1 8 -7 9 -20
17 -28 17 -9 0 -13 6 -10 14 4 11 1 13 -11 9 -15 -6 -16 -5 -2 12 9 11 10 16
3 11 -9 -5 -13 0 -13 13 0 12 -7 21 -15 21 -9 0 -18 7 -21 15 -4 8 -10 12 -15
9 -5 -3 -6 3 -2 12 4 11 2 15 -4 11 -6 -4 -16 0 -23 8 -11 13 -10 14 5 9 13
-5 16 -4 11 4 -4 7 -14 12 -22 12 -8 0 -14 5 -14 10 0 6 -6 10 -14 10 -8 0
-17 7 -20 16 -3 8 -10 12 -16 9 -5 -3 -7 0 -4 8 3 8 0 18 -7 23 -8 4 -10 3 -5
-4 4 -7 2 -12 -3 -12 -6 0 -11 5 -11 10 0 6 -9 10 -20 10 -11 0 -20 6 -20 14
0 9 -7 12 -20 9 -12 -3 -20 0 -20 6 0 7 -4 9 -10 6 -5 -3 -10 1 -10 10 0 9 -4
14 -9 10 -6 -3 -14 2 -19 11 -8 15 -10 15 -15 0 -5 -11 -3 -15 5 -10 7 4 8 3
4 -4 -4 -6 -14 -8 -24 -5 -23 8 -52 34 -47 42 2 4 -5 8 -16 8 -10 1 -19 -3
-19 -8 0 -6 5 -7 12 -3 7 4 8 3 4 -4 -9 -15 -38 -3 -29 12 3 6 -4 2 -16 -8
-15 -14 -20 -15 -16 -5 4 10 -2 15 -17 16 -18 2 -20 0 -8 -7 15 -10 5 -13 -43
-13 -11 0 -16 -5 -13 -13 8 -20 -11 -17 -24 4 -10 15 -11 15 -7 -4 3 -13 -1
-21 -9 -21 -7 0 -11 4 -8 9 3 4 -6 8 -20 8 -14 0 -28 -5 -31 -10 -4 -6 -10 -8
-15 -5 -5 3 -12 0 -16 -6 -4 -7 -3 -9 4 -5 6 3 13 3 16 -2 2 -4 -6 -9 -20 -10
-13 -1 -24 4 -24 10 0 7 -7 2 -16 -10 -8 -12 -20 -20 -25 -16 -11 7 -41 -15
-35 -25 3 -4 -4 -12 -14 -19 -16 -10 -18 -9 -14 6 5 16 5 16 -9 0 -8 -10 -17
-15 -21 -11 -4 4 -4 -1 0 -11 5 -14 4 -17 -4 -12 -7 4 -12 3 -12 -3 0 -6 -8
-7 -17 -4 -15 6 -16 4 -5 -9 10 -13 10 -18 1 -24 -8 -5 -10 -3 -5 7 4 8 1 6
-7 -3 -8 -10 -17 -15 -20 -12 -3 4 -4 -6 -1 -21 3 -15 1 -24 -5 -21 -5 3 -14
-6 -19 -21 -6 -16 -11 -22 -11 -15 -1 10 -4 10 -15 0 -9 -9 -11 -20 -5 -36 8
-21 7 -22 -14 -11 -20 11 -21 11 -8 -4 12 -15 11 -17 -5 -18 -12 0 -14 -3 -6
-6 10 -4 9 -9 -5 -20 -10 -8 -13 -12 -7 -9 8 4 11 -5 9 -27 -2 -20 -8 -31 -16
-29 -9 2 -9 -1 1 -13 16 -20 23 -48 9 -39 -5 3 -6 10 -3 16 4 7 2 8 -4 4 -6
-4 -8 -14 -5 -23 5 -12 3 -14 -8 -8 -8 4 -11 5 -7 0 4 -4 2 -15 -5 -23 -6 -9
-7 -13 -1 -9 7 4 11 -6 12 -29 1 -19 -2 -33 -6 -30 -4 2 -8 -11 -8 -29 0 -18
4 -31 8 -29 4 3 8 0 8 -5 0 -6 -6 -11 -12 -11 -9 0 -9 -3 -3 -8 13 -9 13 -27
1 -39 -5 -5 -6 -3 -2 5 4 6 2 12 -3 12 -6 0 -11 -5 -11 -11 0 -5 -6 -7 -12 -4
-7 4 -4 -1 6 -9 11 -9 15 -16 9 -16 -6 0 -14 -7 -17 -16 -3 -8 -2 -12 4 -9 6
3 10 2 10 -4 0 -5 -8 -12 -17 -14 -13 -3 -12 -5 5 -6 22 -1 22 -2 7 -17 -12
-12 -13 -19 -4 -30 9 -11 8 -14 -6 -14 -11 0 -15 -5 -12 -15 4 -8 2 -17 -3
-20 -6 -4 -10 -1 -10 6 0 7 -3 9 -6 6 -4 -4 -1 -13 6 -22 7 -8 9 -15 5 -15 -4
0 -1 -8 6 -17 8 -9 9 -14 3 -10 -7 4 -14 0 -18 -8 -3 -8 -1 -15 5 -15 6 0 6
-6 0 -19 -6 -10 -7 -22 -3 -26 10 -10 9 -29 -3 -37 -6 -5 -6 -8 3 -8 6 0 12
-5 12 -12 0 -6 -3 -9 -6 -5 -3 3 -12 0 -19 -6 -10 -9 -10 -15 -1 -26 9 -12 7
-13 -9 -7 -16 6 -18 5 -7 -5 6 -7 12 -20 12 -29 0 -13 -1 -13 -10 0 -6 9 -10
10 -10 3 0 -6 5 -15 11 -19 8 -4 7 -9 -2 -15 -12 -7 -11 -11 3 -25 15 -15 15
-20 2 -46 -8 -15 -12 -28 -8 -28 4 0 0 -8 -7 -17 -13 -16 -12 -17 3 -4 10 7
15 18 11 24 -3 6 -1 7 5 3 11 -7 -10 -72 -30 -91 -8 -7 -8 -6 -3 4 6 10 4 12
-4 7 -9 -6 -9 -11 0 -23 10 -12 10 -16 -2 -24 -10 -6 -10 -9 -1 -9 6 0 12 -5
12 -11 0 -6 -8 -8 -17 -5 -15 5 -14 3 2 -9 17 -14 18 -17 5 -25 -10 -7 -11
-10 -2 -10 6 0 12 -5 12 -11 0 -5 -4 -8 -8 -5 -5 3 -9 -1 -9 -9 0 -8 4 -12 7
-10 4 3 8 -6 8 -20 0 -14 -5 -22 -11 -18 -6 4 -7 1 -2 -7 4 -7 2 -16 -6 -21
-10 -6 -7 -9 10 -9 24 0 24 0 5 -16 -19 -15 -19 -16 1 -10 20 6 20 6 -1 -11
-12 -11 -20 -29 -19 -45 1 -19 -2 -24 -11 -17 -8 7 -10 2 -6 -16 2 -15 9 -22
16 -18 8 5 7 2 -1 -8 -13 -16 -13 -97 1 -118 6 -10 6 -12 -2 -7 -7 4 -12 2
-12 -3 0 -6 5 -11 11 -11 5 0 7 -4 4 -10 -3 -5 1 -10 9 -10 9 0 16 -5 16 -11
0 -5 -6 -7 -12 -3 -10 6 -10 4 0 -7 14 -15 17 -33 4 -25 -5 3 -9 -1 -9 -9 0
-8 5 -11 10 -8 5 3 7 0 5 -8 -3 -8 -11 -13 -17 -11 -7 1 -10 -2 -6 -8 3 -6 10
-8 15 -5 4 3 11 -2 14 -11 4 -10 2 -13 -6 -8 -8 5 -9 2 -5 -9 3 -10 2 -17 -3
-17 -6 0 -10 -5 -10 -11 0 -5 6 -7 13 -3 8 5 8 2 -2 -9 -12 -15 -11 -17 5 -17
17 0 17 -1 -2 -16 -10 -8 -13 -13 -6 -9 13 7 12 -21 -2 -44 -6 -10 -5 -12 2
-7 16 10 15 -7 0 -23 -10 -11 -10 -13 0 -7 17 10 15 -5 -3 -32 -13 -18 -14
-21 -1 -16 7 3 17 0 22 -7 4 -7 3 -10 -3 -6 -6 4 -14 0 -17 -9 -5 -12 -2 -15
11 -10 15 5 15 4 -1 -9 -11 -8 -14 -15 -8 -15 7 0 11 -3 11 -7 -3 -19 2 -34 9
-29 5 3 9 -1 9 -9 0 -8 -4 -12 -9 -9 -4 3 -8 0 -8 -5 0 -6 7 -11 16 -11 8 0
13 -4 10 -8 -3 -5 -7 -20 -10 -35 -4 -21 -1 -25 12 -20 10 3 13 1 7 -4 -5 -4
-11 -21 -12 -37 -1 -16 -7 -33 -14 -36 -7 -5 -5 -9 6 -14 9 -3 13 -10 10 -16
-3 -5 -1 -10 6 -10 7 0 9 -8 6 -21 -4 -16 -3 -18 8 -9 9 8 14 6 19 -5 3 -10 2
-14 -5 -9 -6 4 -9 -1 -7 -13 2 -11 -4 -28 -12 -39 -14 -17 -14 -18 2 -6 11 9
18 10 23 2 4 -6 1 -9 -7 -8 -7 2 -12 -2 -11 -8 1 -6 -11 -10 -27 -9 -16 1 -27
-2 -24 -7 3 -4 -2 -8 -11 -8 -10 0 -13 5 -9 13 4 6 4 9 -1 5 -4 -4 -15 -2 -24
5 -14 10 -14 10 -3 -5 12 -15 9 -16 -40 -12 -109 10 -132 8 -122 -8 5 -9 2 -9
-9 1 -9 7 -17 11 -17 7 0 -3 -11 -1 -24 4 -15 5 -27 5 -35 -3 -6 -6 -11 -7
-11 -1 0 5 -15 9 -32 8 -54 -2 -59 -4 -53 -14 3 -5 -7 -3 -22 5 -19 10 -31 11
-40 3 -9 -7 -13 -7 -13 1 0 7 -5 9 -10 6 -6 -4 -8 -11 -5 -16 3 -5 -1 -6 -9
-3 -9 3 -13 11 -9 18 3 6 3 8 -2 4 -4 -4 -15 -2 -24 5 -14 10 -14 10 -3 -5 12
-15 9 -16 -38 -13 -29 2 -54 6 -57 9 -4 3 -12 1 -20 -5 -9 -9 -13 -8 -13 0 0
6 -5 11 -11 11 -5 0 -7 -4 -4 -10 10 -16 -11 -12 -25 5 -7 8 -17 15 -23 15 -6
0 -2 -7 9 -15 15 -12 16 -14 3 -15 -9 0 -19 3 -23 7 -3 4 -17 8 -29 10 -18 2
-19 1 -7 -7 11 -8 5 -9 -24 -5 -22 3 -42 8 -44 10 -3 3 -11 0 -19 -6 -7 -6
-13 -7 -13 -2 0 11 -36 11 -46 0 -11 -10 -26 -8 -20 2 7 10 -20 9 -30 -2 -12
-12 -26 -8 -18 6 4 6 4 9 -1 5 -4 -4 -15 -2 -24 5 -14 10 -14 10 -3 -5 12 -15
9 -16 -37 -13 -28 2 -55 6 -60 9 -5 4 -12 2 -16 -4 -9 -15 -28 -12 -19 3 4 6
4 9 -1 5 -4 -4 -15 -2 -24 5 -14 10 -14 10 -3 -5 12 -15 9 -16 -38 -13 -29 2
-54 6 -57 9 -4 3 -12 1 -20 -5 -9 -9 -13 -8 -13 0 0 6 -5 11 -11 11 -5 0 -7
-4 -4 -10 10 -16 -11 -12 -25 5 -7 8 -17 15 -23 15 -6 0 -2 -7 9 -15 15 -12
16 -14 3 -15 -9 0 -19 3 -23 7 -3 4 -17 8 -29 10 -18 2 -19 1 -7 -7 11 -8 5
-9 -24 -5 -22 3 -42 8 -44 10 -3 3 -11 0 -19 -6 -7 -6 -13 -7 -13 -2 0 11 -36
11 -46 0 -11 -10 -26 -8 -20 2 7 10 -20 9 -30 -2 -12 -12 -26 -8 -18 6 4 6 4
9 -1 5 -4 -4 -15 -2 -24 5 -14 10 -14 10 -3 -5 12 -15 9 -16 -37 -13 -28 2
-55 6 -60 9 -5 4 -12 2 -16 -4 -9 -15 -28 -12 -19 3 4 6 4 9 -1 5 -4 -4 -15
-2 -24 5 -14 10 -14 10 -3 -5 12 -15 9 -16 -38 -13 -29 2 -54 6 -57 9 -4 3
-12 1 -20 -5 -9 -9 -13 -8 -13 0 0 6 -5 11 -11 11 -5 0 -7 -4 -4 -10 10 -16
-11 -12 -25 5 -7 8 -17 15 -23 15 -6 0 -2 -7 9 -15 15 -12 16 -14 3 -15 -9 0
-19 3 -23 7 -3 4 -17 8 -29 10 -18 2 -19 1 -7 -7 11 -8 5 -9 -24 -5 -22 3 -42
8 -44 10 -3 3 -11 0 -19 -6 -7 -6 -13 -7 -13 -2 0 11 -36 11 -46 0 -11 -10
-26 -8 -20 2 7 10 -20 9 -30 -2 -12 -12 -26 -8 -18 6 4 6 4 9 -1 5 -4 -4 -15
-2 -24 5 -14 10 -14 10 -3 -5 12 -15 9 -16 -37 -13 -28 2 -55 6 -60 9 -5 4
-12 2 -16 -4 -9 -15 -28 -12 -19 3 4 6 4 9 -1 5 -4 -4 -15 -2 -24 5 -14 10
-14 10 -3 -5 12 -15 9 -16 -38 -13 -29 2 -54 6 -57 9 -4 3 -12 1 -20 -5 -9 -9
-13 -8 -13 0 0 6 -5 11 -11 11 -5 0 -7 -4 -4 -10 10 -16 -11 -12 -25 5 -7 8
-17 15 -23 15 -6 0 -2 -7 9 -15 15 -12 16 -14 3 -15 -9 0 -19 3 -23 7 -3 4
-17 8 -29 10 -18 2 -19 1 -7 -7 11 -8 5 -9 -24 -5 -22 3 -42 8 -44 10 -3 3
-11 0 -19 -6 -7 -6 -13 -7 -13 -2 0 11 -36 11 -46 0 -11 -10 -26 -8 -20 2 7
10 -20 9 -30 -2 -12 -12 -26 -8 -18 6 4 6 4 9 -1 5 -4 -4 -15 -2 -24 5 -14 10
-14 10 -3 -5 12 -15 9 -16 -38 -13 -29 2 -54 6 -57 9 -4 3 -12 1 -20 -5 -9 -9
-13 -8 -13 0 0 6 -5 11 -11 11 -5 0 -7 -4 -4 -10 10 -16 -11 -12 -25 5 -7 8
-17 15 -23 15 -6 0 -2 -7 9 -15 15 -12 16 -14 3 -15 -9 0 -19 3 -23 7 -3 4
-17 8 -29 10 -18 2 -19 1 -7 -7 11 -8 5 -9 -24 -5 -22 3 -42 8 -44 10 -3 3
-11 0 -19 -6 -7 -6 -13 -7 -13 -2 0 11 -36 11 -46 0 -11 -10 -26 -8 -20 2 7
11 -13 9 -31 -2 -8 -5 -13 -4 -13 2 0 6 -5 11 -11 11 -5 0 -7 -4 -4 -10 10
-16 -11 -12 -25 5 -7 8 -17 15 -23 15 -6 0 -2 -7 9 -15 15 -12 16 -14 3 -15
-9 0 -19 3 -23 7 -3 4 -17 8 -29 10 -18 2 -19 1 -7 -7 11 -8 5 -9 -24 -5 -22
3 -42 8 -44 10 -3 3 -11 0 -19 -6 -7 -6 -13 -7 -13 -2 0 11 -36 11 -46 0 -10
-10 -26 -9 -20 1 3 5 -1 9 -9 9 -8 0 -11 -5 -8 -10 3 -6 -1 -6 -12 0 -22 13
-57 5 -48 -11 4 -6 -1 -5 -10 3 -9 7 -17 11 -17 7 0 -3 -11 -1 -24 4 -15 5
-27 5 -35 -3 -6 -6 -11 -7 -11 -1 0 5 -15 9 -33 8 -53 -2 -58 -4 -52 -14 3 -5
-7 -3 -22 5 -19 10 -31 11 -40 3 -9 -7 -13 -7 -13 1 0 7 -5 9 -10 6 -6 -4 -8
-11 -5 -16 3 -5 -1 -6 -9 -3 -9 3 -13 11 -9 18 3 6 3 8 -2 4 -4 -4 -15 -2 -24
5 -14 10 -14 10 -3 -5 12 -15 9 -16 -38 -13 -29 2 -54 6 -57 9 -4 3 -12 1 -20
-5 -9 -9 -13 -8 -13 0 0 6 -5 11 -11 11 -5 0 -7 -4 -4 -10 10 -16 -11 -12 -25
5 -7 8 -17 15 -23 15 -6 0 -2 -7 9 -15 15 -12 16 -14 3 -15 -9 0 -19 3 -23 7
-3 4 -17 8 -29 10 -18 2 -19 1 -7 -7 11 -8 5 -9 -24 -5 -22 3 -42 8 -44 10 -3
3 -11 0 -19 -6 -7 -6 -13 -7 -13 -2 0 11 -36 11 -46 0 -11 -10 -26 -8 -20 2 7
10 -20 9 -30 -2 -12 -12 -26 -8 -18 6 4 6 4 9 -1 5 -4 -4 -15 -2 -24 5 -14 10
-14 10 -3 -5 12 -15 9 -16 -40 -12 -109 10 -132 8 -122 -8 5 -9 2 -9 -9 1 -9
7 -17 11 -17 7 0 -3 -11 -1 -24 4 -15 5 -27 5 -35 -3 -6 -6 -11 -7 -11 -1 0 5
-15 9 -33 8 -53 -2 -58 -4 -52 -14 3 -5 -7 -3 -22 5 -19 10 -31 11 -40 3 -9
-7 -13 -7 -13 1 0 7 -5 9 -10 6 -6 -4 -8 -12 -4 -18 3 -7 -1 -4 -9 6 -15 18
-32 24 -22 7 10 -16 -11 -12 -25 5 -7 8 -17 15 -23 15 -6 0 -2 -7 9 -15 15
-12 16 -14 3 -15 -9 0 -19 3 -23 7 -3 4 -17 8 -29 10 -18 2 -19 1 -7 -7 11 -8
5 -9 -24 -5 -22 3 -42 8 -44 10 -3 3 -11 0 -19 -6 -7 -6 -13 -7 -13 -2 0 11
-36 11 -46 0 -11 -10 -26 -8 -20 2 7 11 -13 9 -32 -2 -7 -5 -12 -4 -12 2 0 6
-5 11 -11 11 -5 0 -7 -4 -4 -10 10 -16 -11 -12 -25 5 -7 8 -17 15 -23 15 -6 0
-2 -7 9 -15 15 -12 16 -14 3 -15 -9 0 -19 3 -23 7 -3 4 -17 8 -29 10 -18 2
-19 1 -7 -7 11 -8 5 -9 -24 -5 -22 3 -42 8 -44 10 -3 3 -11 0 -19 -6 -7 -6
-13 -7 -13 -2 0 11 -36 11 -46 0 -11 -10 -26 -8 -20 2 7 11 -13 9 -32 -2 -7
-5 -12 -4 -12 2 0 6 -5 11 -11 11 -5 0 -7 -4 -4 -10 10 -16 -11 -12 -25 5 -7
8 -17 15 -23 15 -6 0 -2 -7 9 -15 15 -12 16 -14 3 -15 -9 0 -19 3 -23 7 -3 4
-17 8 -29 10 -18 2 -19 1 -7 -7 11 -8 5 -9 -24 -5 -22 3 -42 8 -44 10 -3 3
-11 0 -19 -6 -7 -6 -13 -7 -13 -2 0 11 -36 11 -46 0 -11 -10 -26 -8 -20 2 7
11 -13 9 -31 -2 -8 -5 -13 -4 -13 2 0 6 -5 11 -11 11 -5 0 -7 -4 -4 -10 10
-16 -11 -12 -25 5 -7 8 -17 15 -23 15 -6 0 -2 -7 9 -15 15 -12 16 -14 3 -15
-9 0 -19 3 -23 7 -11 11 -37 12 -30 1 4 -6 -2 -8 -16 -3 -17 6 -21 4 -14 -6 6
-12 5 -12 -9 0 -12 9 -17 10 -17 2 0 -7 -4 -9 -10 -6 -5 3 -10 1 -10 -4 0 -6
-7 -11 -16 -11 -9 0 -12 -5 -8 -12 6 -10 4 -10 -7 -2 -19 15 -51 14 -45 -2 3
-9 -1 -11 -11 -7 -10 4 -14 2 -10 -4 4 -5 -5 -15 -19 -22 -17 -7 -24 -17 -20
-27 3 -8 2 -12 -4 -9 -6 3 -10 1 -10 -5 0 -6 -4 -8 -10 -5 -5 3 -12 -6 -16
-20 -3 -14 -14 -30 -23 -36 -15 -10 -15 -10 1 -5 12 3 16 -1 15 -14 -1 -10 -6
-18 -12 -17 -5 1 -9 -4 -7 -10 1 -7 -4 -13 -10 -13 -9 0 -8 -4 2 -10 12 -8 12
-10 -5 -11 -11 0 -14 -3 -7 -6 6 -2 9 -9 6 -15 -4 -6 0 -14 7 -19 11 -7 10 -9
-5 -9 -18 0 -18 -1 -1 -20 19 -20 9 -28 -13 -10 -9 7 -9 7 -2 -2 6 -7 10 -20
10 -31 0 -11 5 -16 12 -12 7 4 4 -1 -6 -9 -15 -12 -16 -16 -5 -16 12 0 12 -2
-1 -10 -14 -9 -7 -14 15 -11 6 1 -1 -8 -15 -20 -14 -11 -19 -18 -13 -14 7 3
13 1 13 -5 0 -6 5 -8 12 -4 7 4 8 3 4 -5 -4 -6 -12 -8 -18 -5 -6 4 -6 -1 1
-14 9 -17 8 -21 -7 -25 -11 -3 -9 -5 8 -6 19 -1 22 -3 10 -10 -8 -6 -18 -7
-22 -5 -4 3 -5 -2 -1 -11 4 -12 8 -13 13 -5 5 7 9 2 12 -14 4 -21 3 -24 -8
-15 -11 9 -11 5 -4 -21 7 -25 6 -30 -3 -23 -7 4 -6 1 3 -7 13 -12 14 -18 5
-27 -7 -7 -16 -9 -21 -5 -4 4 -4 1 0 -6 4 -7 11 -10 16 -7 5 3 12 0 16 -6 5
-8 3 -9 -6 -4 -8 5 -11 3 -8 -6 3 -8 1 -26 -3 -41 -5 -17 -3 -30 3 -34 7 -5 8
-2 3 6 -6 9 -4 11 5 5 10 -6 9 -11 -4 -21 -13 -9 -14 -14 -5 -20 9 -5 7 -11
-6 -21 -12 -8 -14 -13 -6 -13 8 0 11 -6 7 -16 -6 -15 -4 -15 10 -3 16 13 16
12 6 -7 -6 -11 -11 -29 -11 -40 -1 -10 -1 -26 -2 -34 -1 -8 2 -24 7 -34 5 -14
4 -17 -5 -11 -10 6 -11 3 -3 -11 5 -11 7 -25 4 -33 -3 -9 0 -11 9 -7 8 4 6 1
-5 -8 -10 -8 -15 -19 -12 -25 4 -5 2 -12 -4 -16 -5 -3 -10 -12 -10 -18 0 -7 5
-4 11 6 5 9 15 17 21 17 7 0 6 -5 -2 -15 -10 -12 -10 -18 0 -30 11 -13 10 -14
-6 -8 -17 6 -17 5 -5 -10 12 -16 12 -17 -5 -11 -14 4 -16 3 -5 -4 8 -6 10 -15
5 -23 -6 -10 -3 -10 11 1 17 14 18 14 7 -6 -6 -11 -11 -29 -11 -40 -1 -10 -1
-26 -2 -34 -1 -8 2 -24 7 -34 5 -14 4 -17 -5 -11 -10 6 -11 3 -3 -11 5 -11 7
-25 4 -33 -3 -9 0 -11 9 -7 8 4 6 1 -5 -8 -10 -8 -15 -19 -12 -25 4 -5 2 -12
-4 -16 -5 -3 -10 -12 -10 -18 0 -7 5 -4 11 6 5 9 15 17 21 17 6 0 6 -6 -2 -15
-10 -12 -10 -19 -2 -27 15 -15 15 -28 1 -28 -5 0 -7 5 -4 10 3 6 1 10 -5 10
-7 0 -9 -7 -6 -16 3 -9 6 -22 6 -30 0 -9 5 -13 12 -9 7 4 4 -1 -6 -9 -15 -12
-16 -16 -5 -16 12 0 12 -2 -1 -10 -14 -9 -7 -14 15 -11 6 1 -1 -8 -15 -20 -14
-11 -19 -18 -13 -14 7 3 13 1 13 -5 0 -6 5 -8 12 -4 7 4 8 3 4 -5 -4 -6 -12
-8 -18 -5 -6 4 -6 -1 1 -14 9 -17 8 -21 -7 -25 -11 -3 -9 -5 8 -6 19 -1 22 -3
10 -10 -8 -6 -18 -7 -22 -5 -4 3 -5 -2 -1 -11 4 -12 8 -13 13 -5 5 7 9 2 12
-14 4 -21 3 -24 -8 -15 -11 9 -11 5 -4 -21 7 -25 6 -30 -3 -23 -7 4 -6 1 3 -7
13 -12 14 -18 5 -27 -7 -7 -16 -9 -21 -5 -4 4 -4 1 0 -6 4 -7 11 -10 16 -7 5
3 12 0 16 -6 5 -8 3 -9 -6 -4 -8 5 -11 3 -8 -6 3 -8 1 -26 -3 -41 -5 -17 -3
-30 3 -34 7 -5 8 -2 3 6 -6 9 -4 11 5 5 10 -6 10 -10 -3 -20 -15 -11 -15 -13
1 -30 15 -15 15 -17 1 -12 -12 4 -15 0 -11 -19 2 -13 9 -21 16 -18 6 3 2 -2
-8 -10 -15 -12 -16 -16 -5 -16 12 0 12 -2 -1 -10 -14 -9 -7 -14 15 -11 6 1 -1
-8 -15 -20 -14 -11 -19 -18 -12 -14 6 3 12 1 12 -5 0 -6 5 -8 12 -4 7 4 8 3 4
-5 -4 -6 -12 -8 -18 -5 -6 4 -6 -1 1 -14 9 -17 8 -21 -7 -25 -11 -3 -9 -5 8
-6 19 -1 22 -3 10 -10 -8 -6 -18 -7 -22 -5 -4 3 -5 -2 -1 -11 4 -12 8 -13 13
-5 5 7 9 2 12 -14 4 -21 3 -24 -8 -15 -11 9 -11 5 -4 -21 7 -25 6 -30 -3 -23
-7 4 -6 1 3 -7 13 -12 14 -18 5 -27 -7 -7 -16 -9 -21 -5 -4 4 -4 1 0 -6 4 -7
11 -10 16 -7 5 3 12 0 16 -6 5 -8 3 -9 -6 -4 -8 5 -11 3 -8 -6 3 -8 1 -26 -3
-41 -5 -17 -3 -30 3 -34 7 -5 8 -2 3 6 -6 9 -4 11 5 5 10 -6 10 -10 -3 -20
-15 -11 -15 -13 1 -30 15 -15 15 -17 1 -12 -12 4 -15 0 -11 -19 2 -13 9 -21
16 -18 6 3 2 -2 -8 -10 -15 -12 -16 -16 -5 -16 12 0 12 -2 -1 -10 -14 -9 -7
-14 15 -11 6 1 -1 -8 -15 -20 -14 -11 -19 -18 -12 -14 6 3 12 1 12 -5 0 -6 5
-8 12 -4 7 4 8 3 4 -5 -4 -6 -12 -8 -18 -5 -6 4 -6 -2 1 -15 11 -20 8 -25 -12
-22 -5 1 -6 -3 -2 -8 3 -6 13 -8 23 -5 9 3 7 -1 -5 -8 l-23 -13 21 -14 c16 -9
18 -16 10 -24 -15 -15 -14 -40 1 -31 10 6 10 4 2 -7 -6 -8 -10 -22 -9 -31 2
-11 -2 -15 -13 -11 -14 4 -14 3 -3 -5 8 -6 10 -15 5 -23 -6 -10 -3 -10 11 1
17 14 18 14 7 -6 -6 -11 -11 -29 -11 -40 -1 -10 -1 -26 -2 -34 -1 -8 2 -24 7
-34 5 -14 4 -17 -5 -11 -10 6 -11 3 -3 -11 5 -11 7 -25 4 -33 -3 -9 0 -11 9
-7 8 4 6 1 -5 -8 -10 -8 -15 -19 -12 -25 4 -5 2 -12 -4 -16 -5 -3 -10 -12 -10
-18 0 -7 5 -4 11 6 5 9 15 17 21 17 7 0 6 -5 -2 -15 -10 -12 -10 -18 0 -30 11
-13 10 -14 -6 -8 -17 6 -17 5 -5 -10 12 -16 12 -17 -5 -11 -14 4 -16 3 -5 -4
8 -6 10 -15 5 -23 -6 -10 -3 -10 11 1 17 14 18 14 7 -6 -6 -11 -11 -29 -11
-40 -1 -10 -1 -26 -2 -34 -1 -8 2 -24 7 -34 5 -14 4 -17 -5 -11 -10 6 -11 3
-3 -11 5 -11 7 -25 4 -33 -3 -9 0 -11 9 -7 8 4 6 1 -5 -8 -10 -8 -15 -19 -12
-25 4 -5 2 -12 -4 -16 -5 -3 -10 -12 -10 -18 0 -7 5 -4 11 6 5 9 15 17 21 17
7 0 6 -5 -2 -15 -10 -12 -10 -18 0 -30 11 -13 10 -14 -6 -8 -19 7 -19 6 0 -21
10 -16 13 -25 6 -21 -8 5 -11 3 -8 -6 3 -8 1 -26 -3 -41 -5 -17 -3 -30 3 -34
7 -5 8 -2 3 6 -6 9 -4 11 5 5 10 -6 10 -10 -3 -20 -15 -11 -15 -13 1 -30 15
-15 15 -17 1 -12 -12 4 -15 0 -11 -19 2 -13 9 -21 16 -18 6 3 2 -2 -8 -10 -15
-12 -16 -16 -5 -16 12 0 12 -2 -1 -10 -14 -9 -7 -14 15 -11 6 1 -1 -8 -15 -20
-14 -11 -19 -18 -13 -14 7 3 13 1 13 -5 0 -6 5 -8 12 -4 7 4 8 3 4 -5 -4 -6
-12 -8 -18 -5 -6 4 -6 -2 1 -15 11 -20 8 -25 -12 -22 -5 1 -6 -3 -2 -8 3 -6
13 -8 23 -5 9 3 7 -1 -5 -8 l-23 -13 21 -14 c16 -9 18 -16 10 -24 -15 -15 -14
-40 1 -31 7 4 8 3 4 -4 -4 -6 -13 -9 -21 -5 -8 3 -15 0 -15 -6 0 -6 6 -10 13
-9 17 4 12 -50 -8 -82 -8 -13 -7 -13 8 -1 9 7 14 18 10 24 -3 6 -1 7 5 3 9 -5
9 -13 0 -29 -7 -12 -11 -25 -10 -29 1 -5 -4 -8 -10 -8 -7 0 -2 -7 10 -16 18
-13 21 -19 11 -30 -9 -11 -8 -18 2 -31 12 -14 12 -16 0 -9 -9 6 -12 5 -9 -5 3
-8 1 -26 -3 -41 -5 -17 -3 -30 3 -34 7 -5 8 -2 3 6 -6 9 -4 11 5 5 10 -6 10
-10 -3 -20 -15 -11 -15 -13 1 -30 15 -15 15 -17 1 -12 -12 4 -15 0 -11 -19 2
-13 9 -21 16 -18 6 3 2 -2 -8 -10 -15 -12 -16 -16 -5 -16 12 0 12 -2 -1 -10
-14 -9 -7 -14 15 -11 6 1 -1 -8 -15 -20 -14 -11 -19 -18 -13 -14 7 3 13 1 13
-5 0 -6 5 -8 12 -4 7 4 8 3 4 -5 -4 -6 -12 -8 -18 -5 -6 4 -6 -1 1 -14 9 -17
8 -21 -7 -25 -11 -3 -9 -5 8 -6 19 -1 22 -3 10 -10 -8 -6 -18 -7 -22 -5 -4 3
-5 -2 -1 -11 4 -12 8 -13 13 -5 5 7 9 2 12 -14 4 -21 3 -24 -8 -15 -11 9 -11
5 -4 -21 7 -25 6 -30 -3 -23 -7 4 -6 1 3 -7 13 -12 14 -18 5 -27 -7 -7 -16 -9
-21 -5 -4 4 -4 1 0 -6 4 -7 11 -10 16 -7 5 3 12 0 16 -6 5 -8 3 -9 -6 -4 -8 5
-11 3 -8 -6 3 -8 1 -26 -3 -41 -5 -17 -3 -30 3 -34 7 -5 8 -2 3 6 -6 9 -4 11
5 5 10 -6 10 -10 -3 -20 -15 -11 -15 -13 1 -30 15 -15 15 -17 1 -12 -12 4 -15
0 -11 -19 2 -13 9 -21 16 -18 6 3 2 -2 -8 -10 -15 -12 -16 -16 -5 -16 12 0 12
-2 -1 -10 -14 -9 -7 -14 15 -11 6 1 -1 -8 -15 -20 -14 -11 -19 -18 -13 -14 7
3 13 1 13 -5 0 -6 5 -8 12 -4 7 4 8 3 4 -5 -4 -6 -12 -8 -18 -5 -6 4 -6 -1 1
-14 9 -17 8 -21 -7 -25 -11 -3 -9 -5 8 -6 19 -1 22 -3 10 -10 -8 -6 -18 -7
-22 -5 -4 3 -5 -2 -1 -11 4 -12 8 -13 13 -5 5 7 9 2 12 -14 4 -21 3 -24 -8
-15 -11 9 -11 5 -4 -21 7 -25 6 -30 -3 -23 -7 4 -6 1 3 -7 13 -12 14 -18 5
-27 -7 -7 -16 -9 -21 -5 -4 4 -4 1 0 -6 4 -7 11 -10 16 -7 5 3 12 0 16 -6 5
-8 3 -9 -6 -4 -8 5 -11 3 -8 -6 3 -8 1 -26 -3 -41 -5 -17 -3 -30 3 -34 7 -5 8
-2 3 6 -6 9 -4 11 5 5 10 -6 10 -10 -3 -20 -15 -11 -15 -13 1 -30 15 -15 15
-17 1 -12 -12 4 -15 0 -11 -19 2 -13 9 -21 16 -18 6 3 2 -2 -8 -10 -15 -12
-16 -16 -5 -16 12 0 12 -2 -1 -10 -14 -9 -7 -14 15 -11 6 1 -1 -8 -15 -20 -14
-11 -19 -18 -13 -14 7 3 13 1 13 -5 0 -6 5 -8 12 -4 7 4 8 3 4 -5 -4 -6 -12
-8 -18 -5 -6 4 -6 -1 1 -14 9 -17 8 -21 -7 -25 -11 -3 -9 -5 8 -6 19 -1 22 -3
10 -10 -8 -6 -18 -7 -22 -5 -4 3 -5 -2 -1 -11 4 -12 8 -13 13 -5 5 7 9 2 12
-14 4 -21 3 -24 -8 -15 -11 9 -11 5 -4 -21 7 -25 6 -30 -3 -23 -7 4 -6 1 3 -7
13 -12 14 -18 5 -27 -7 -7 -16 -9 -21 -5 -4 4 -4 1 0 -6 4 -7 11 -10 16 -7 5
3 12 0 16 -6 5 -8 3 -9 -6 -4 -8 5 -11 3 -8 -6 3 -8 1 -26 -3 -41 -5 -17 -3
-30 3 -34 7 -5 8 -2 3 6 -6 9 -4 11 5 5 10 -6 10 -10 -3 -20 -15 -11 -15 -13
1 -30 15 -15 15 -17 1 -12 -12 4 -15 0 -11 -19 2 -13 9 -21 16 -18 6 3 2 -2
-8 -10 -15 -12 -16 -16 -5 -16 12 0 12 -2 -1 -10 -14 -9 -7 -14 15 -11 6 1 -1
-8 -15 -20 -14 -11 -19 -18 -13 -14 7 3 13 1 13 -5 0 -6 5 -8 12 -4 7 4 8 3 4
-5 -4 -6 -12 -8 -18 -5 -6 4 -6 -2 1 -15 11 -20 8 -25 -12 -22 -5 1 -6 -3 -2
-8 3 -6 13 -8 23 -5 9 3 7 -1 -5 -8 l-23 -13 21 -14 c16 -9 18 -16 10 -24 -15
-15 -14 -40 1 -31 7 4 8 3 4 -4 -4 -6 -13 -9 -21 -5 -8 3 -15 0 -15 -7 0 -6 4
-9 9 -6 5 3 15 -2 22 -11 12 -14 12 -16 -2 -11 -12 5 -15 1 -11 -18 2 -13 9
-21 16 -18 6 3 2 -2 -8 -10 -15 -12 -16 -16 -5 -16 12 0 12 -2 -1 -10 -14 -9
-7 -14 15 -11 6 1 -1 -8 -15 -20 -14 -11 -19 -18 -13 -14 7 3 13 1 13 -5 0 -6
5 -8 12 -4 7 4 8 3 4 -5 -4 -6 -12 -8 -18 -5 -6 4 -6 -1 1 -14 9 -17 8 -21 -7
-25 -11 -3 -9 -5 8 -6 19 -1 22 -3 10 -10 -8 -6 -18 -7 -22 -5 -4 3 -5 -2 -1
-11 4 -12 8 -13 13 -5 5 7 9 2 12 -14 4 -21 3 -24 -8 -15 -11 9 -11 5 -4 -21
7 -25 6 -30 -3 -23 -7 4 -6 1 3 -7 13 -12 14 -18 5 -27 -7 -7 -16 -9 -21 -5
-4 4 -4 1 0 -6 4 -7 11 -10 16 -7 5 3 12 0 16 -6 5 -8 3 -9 -6 -4 -8 5 -11 3
-8 -6 3 -8 1 -26 -3 -41 -5 -17 -3 -30 3 -34 7 -5 8 -2 3 6 -6 9 -4 11 5 5 10
-6 10 -10 -3 -20 -15 -11 -15 -13 1 -30 15 -15 15 -17 1 -12 -12 4 -15 0 -11
-19 2 -13 9 -21 16 -18 6 3 2 -2 -8 -10 -15 -12 -16 -16 -5 -16 12 0 12 -2 -1
-10 -14 -9 -7 -14 15 -11 6 1 -1 -8 -15 -20 -14 -11 -19 -18 -13 -14 7 3 13 1
13 -5 0 -6 5 -8 12 -4 7 4 8 3 4 -5 -4 -6 -12 -8 -18 -5 -6 4 -6 -1 1 -14 9
-17 8 -21 -7 -25 -11 -3 -9 -5 8 -6 19 -1 22 -3 10 -10 -8 -6 -18 -7 -22 -5
-4 3 -5 -2 -1 -11 4 -12 8 -13 13 -5 5 7 9 2 12 -14 4 -21 3 -24 -8 -15 -11 9
-11 5 -4 -21 7 -25 6 -30 -3 -23 -7 4 -6 1 3 -7 13 -12 14 -18 5 -27 -7 -7
-16 -9 -21 -5 -4 4 -4 1 0 -6 4 -7 11 -10 16 -7 5 3 12 0 16 -6 5 -8 3 -9 -6
-4 -8 5 -11 3 -8 -6 3 -8 1 -26 -3 -41 -5 -17 -3 -30 3 -34 7 -5 8 -2 3 6 -6
9 -4 11 5 5 10 -6 10 -10 -3 -20 -15 -11 -15 -13 1 -30 15 -15 15 -17 1 -12
-12 4 -15 0 -11 -19 2 -13 9 -21 16 -18 6 3 2 -2 -8 -10 -15 -12 -16 -16 -5
-16 12 0 12 -2 -1 -10 -14 -9 -7 -14 15 -11 6 1 -1 -8 -15 -20 -14 -11 -19
-18 -13 -14 7 3 13 1 13 -5 0 -6 5 -8 12 -4 7 4 8 3 4 -5 -4 -6 -12 -8 -18 -5
-6 4 -6 -2 1 -15 11 -20 8 -25 -12 -22 -5 1 -6 -3 -2 -8 3 -6 13 -8 23 -5 9 3
7 -1 -5 -8 l-23 -13 21 -14 c16 -9 18 -16 10 -24 -15 -15 -14 -40 1 -31 10 6
10 5 1 -7 -11 -14 -13 -19 -13 -40 0 -5 -5 -7 -12 -3 -7 4 -8 3 -4 -5 4 -6 11
-9 16 -6 5 3 12 0 16 -6 5 -8 3 -9 -6 -4 -8 5 -11 3 -8 -6 3 -8 1 -26 -3 -41
-5 -17 -3 -30 3 -34 7 -5 8 -2 3 6 -6 9 -4 11 5 5 10 -6 10 -10 -3 -20 -15
-11 -15 -13 1 -30 15 -15 15 -17 1 -12 -12 4 -15 0 -11 -19 2 -13 9 -21 16
-18 6 3 2 -2 -8 -10 -15 -12 -16 -16 -5 -16 12 0 12 -2 -1 -10 -14 -9 -7 -14
15 -11 6 1 -1 -8 -15 -20 -14 -11 -19 -18 -13 -14 7 3 13 1 13 -5 0 -6 5 -8
12 -4 7 4 8 3 4 -5 -4 -6 -12 -8 -18 -5 -6 4 -6 -2 1 -15 11 -20 8 -25 -12
-22 -5 1 -6 -3 -2 -8 3 -6 13 -8 23 -5 9 3 7 -1 -5 -8 l-23 -13 21 -14 c16 -9
18 -16 10 -24 -15 -15 -14 -40 1 -31 7 4 8 3 4 -4 -4 -6 -13 -9 -21 -5 -8 3
-15 0 -15 -6 0 -6 6 -10 13 -8 17 3 12 -51 -8 -83 -8 -13 -7 -13 8 -1 9 7 14
18 10 24 -3 6 -1 7 5 3 9 -5 9 -13 0 -29 -7 -12 -11 -25 -10 -29 1 -5 -4 -8
-10 -8 -7 0 -2 -7 10 -16 18 -13 21 -19 11 -30 -9 -11 -8 -18 2 -31 12 -14 12
-16 0 -9 -9 6 -12 5 -9 -5 3 -8 1 -26 -3 -41 -5 -17 -3 -30 3 -34 7 -5 8 -2 3
6 -6 9 -4 11 5 5 10 -6 10 -10 -3 -20 -15 -11 -15 -13 1 -30 15 -15 15 -17 1
-12 -12 4 -15 0 -11 -19 2 -13 9 -21 16 -18 6 3 2 -2 -8 -10 -15 -12 -16 -16
-5 -16 12 0 12 -2 -1 -10 -14 -9 -7 -14 15 -11 6 1 -1 -8 -15 -20 -14 -11 -19
-18 -13 -14 7 3 13 1 13 -5 0 -6 5 -8 12 -4 7 4 8 3 4 -5 -4 -6 -12 -8 -18 -5
-6 4 -6 -1 1 -14 9 -17 8 -21 -7 -25 -11 -3 -9 -5 8 -6 19 -1 22 -3 10 -10 -8
-6 -18 -7 -22 -5 -4 3 -5 -2 -1 -11 4 -12 8 -13 13 -5 5 7 9 2 12 -14 4 -21 3
-24 -8 -15 -11 9 -11 5 -4 -21 7 -25 6 -30 -3 -23 -7 4 -6 1 3 -7 13 -12 14
-18 5 -27 -7 -7 -16 -9 -21 -5 -4 4 -4 1 0 -6 4 -7 11 -10 16 -7 5 3 12 0 16
-6 5 -8 3 -9 -6 -4 -8 5 -11 3 -8 -6 3 -8 1 -26 -3 -41 -5 -17 -3 -30 3 -34 7
-5 8 -2 3 6 -6 9 -4 11 5 5 10 -6 9 -11 -4 -21 -13 -9 -14 -14 -5 -20 9 -5 7
-11 -6 -21 -12 -8 -14 -13 -6 -13 8 0 11 -6 7 -16 -6 -15 -4 -15 10 -3 16 13
16 12 6 -7 -6 -11 -11 -29 -11 -40 -1 -10 -1 -26 -2 -34 -1 -8 2 -24 7 -34 5
-14 4 -17 -5 -11 -10 6 -11 3 -3 -11 5 -11 7 -25 4 -33 -3 -9 0 -11 9 -7 8 4
6 1 -5 -8 -10 -8 -15 -19 -12 -25 4 -5 2 -12 -4 -16 -5 -3 -10 -12 -10 -18 0
-7 5 -4 11 6 5 9 15 17 21 17 7 0 6 -5 -2 -15 -10 -12 -10 -18 0 -30 11 -13
10 -14 -6 -8 -17 6 -17 5 -5 -10 12 -16 12 -17 -5 -11 -14 4 -16 3 -5 -4 8 -6
10 -15 5 -23 -6 -10 -3 -10 11 1 17 14 18 14 7 -6 -6 -11 -11 -29 -11 -40 -1
-10 -1 -26 -2 -34 -1 -8 2 -24 7 -34 5 -14 4 -17 -5 -11 -10 6 -11 3 -3 -11 5
-11 7 -25 4 -33 -3 -9 0 -11 9 -7 8 4 6 1 -5 -8 -10 -8 -15 -19 -12 -25 4 -5
2 -12 -4 -16 -5 -3 -10 -12 -10 -18 0 -7 5 -4 11 5 5 10 15 18 21 18 6 0 6 -6
-2 -15 -10 -12 -10 -19 -2 -27 15 -15 15 -28 1 -28 -5 0 -7 5 -4 10 3 6 1 10
-5 10 -7 0 -9 -7 -6 -16 3 -9 6 -22 6 -30 0 -9 5 -13 12 -9 7 4 4 -1 -6 -9
-15 -12 -16 -16 -5 -16 12 0 12 -2 -1 -10 -14 -9 -7 -14 15 -11 6 1 -1 -8 -15
-20 -14 -11 -19 -18 -13 -14 7 3 13 1 13 -5 0 -6 5 -8 12 -4 7 4 8 3 4 -5 -4
-6 -12 -8 -18 -5 -6 4 -6 -1 1 -14 9 -17 8 -21 -7 -25 -11 -3 -9 -5 8 -6 19
-1 22 -3 10 -10 -8 -6 -18 -7 -22 -5 -4 3 -5 -2 -1 -11 4 -12 8 -13 13 -5 5 7
9 2 12 -14 4 -21 3 -24 -8 -15 -11 9 -11 5 -4 -21 7 -25 6 -30 -3 -23 -7 4 -6
1 3 -7 13 -12 14 -18 5 -27 -7 -7 -16 -9 -21 -5 -4 4 -4 1 0 -6 4 -7 11 -10
16 -7 5 3 12 0 16 -6 5 -8 3 -9 -6 -4 -8 5 -11 3 -8 -6 3 -8 1 -26 -3 -41 -5
-17 -3 -30 3 -34 7 -5 8 -2 3 6 -6 9 -4 11 5 5 10 -6 10 -10 -3 -20 -15 -11
-15 -13 1 -30 15 -15 15 -17 1 -12 -12 4 -15 0 -11 -19 2 -13 9 -21 16 -18 6
3 2 -2 -8 -10 -15 -12 -16 -16 -5 -16 12 0 12 -2 -1 -10 -14 -9 -7 -14 15 -11
6 1 -1 -8 -15 -20 -14 -11 -19 -18 -13 -14 7 3 13 1 13 -5 0 -6 5 -8 12 -4 7
4 8 3 4 -5 -4 -6 -12 -8 -18 -5 -6 4 -6 -1 1 -14 9 -17 8 -21 -7 -25 -11 -3
-9 -5 8 -6 19 -1 22 -3 10 -10 -8 -6 -18 -7 -22 -5 -4 3 -5 -2 -1 -11 4 -12 8
-13 13 -5 5 7 9 2 12 -14 4 -21 3 -24 -8 -15 -11 9 -11 5 -4 -21 7 -25 6 -30
-3 -23 -7 4 -6 1 3 -7 13 -12 14 -18 5 -27 -7 -7 -16 -9 -21 -5 -4 4 -4 1 0
-6 4 -7 11 -10 16 -7 5 3 12 0 16 -6 5 -8 3 -9 -6 -4 -8 5 -11 3 -8 -6 3 -8 1
-26 -3 -41 -5 -17 -3 -30 3 -34 7 -5 8 -2 3 6 -6 9 -4 11 5 5 10 -6 10 -10 -3
-20 -15 -11 -15 -13 1 -30 15 -15 15 -17 1 -12 -12 4 -15 0 -11 -19 2 -13 9
-21 16 -18 6 3 2 -2 -8 -10 -15 -12 -16 -16 -5 -16 12 0 12 -2 -1 -10 -14 -9
-7 -14 15 -11 6 1 -1 -8 -15 -20 -14 -11 -19 -18 -13 -14 7 3 13 1 13 -5 0 -6
5 -8 12 -4 7 4 8 3 4 -5 -4 -6 -12 -8 -18 -5 -6 4 -6 -2 1 -15 11 -20 8 -25
-12 -22 -5 1 -6 -3 -2 -8 3 -6 13 -8 23 -5 9 3 7 -1 -5 -8 l-23 -13 21 -14
c16 -9 18 -16 10 -24 -15 -15 -14 -40 1 -31 10 6 10 4 2 -7 -6 -8 -10 -22 -9
-31 2 -11 -2 -15 -13 -11 -14 4 -14 3 -3 -5 8 -6 10 -15 5 -23 -6 -10 -3 -10
11 1 17 14 18 14 7 -6 -6 -11 -11 -29 -11 -40 -1 -10 -1 -26 -2 -34 -1 -8 2
-24 7 -34 5 -14 4 -17 -5 -11 -10 6 -11 3 -3 -11 5 -11 7 -25 4 -33 -3 -9 0
-11 9 -7 8 4 6 1 -5 -8 -10 -8 -15 -19 -12 -25 4 -5 2 -12 -4 -16 -5 -3 -10
-12 -10 -18 0 -7 5 -4 11 6 5 9 15 17 21 17 7 0 6 -5 -2 -15 -10 -12 -10 -18
0 -30 11 -13 10 -14 -6 -8 -17 6 -17 5 -5 -10 12 -16 12 -17 -5 -11 -14 4 -16
3 -5 -4 8 -6 10 -15 5 -23 -6 -10 -3 -10 11 1 17 14 18 14 7 -6 -6 -11 -11
-29 -11 -40 -1 -10 -1 -26 -2 -34 -1 -8 2 -24 7 -34 5 -14 4 -17 -5 -11 -10 6
-11 3 -3 -11 5 -11 7 -25 4 -33 -3 -9 0 -11 9 -7 8 4 6 1 -5 -8 -10 -8 -15
-19 -12 -25 4 -5 2 -12 -4 -16 -5 -3 -10 -12 -10 -18 0 -7 5 -4 11 6 5 9 15
17 21 17 7 0 6 -5 -2 -15 -10 -12 -10 -18 0 -30 11 -13 10 -14 -6 -8 -19 7
-19 6 0 -21 10 -16 13 -25 6 -21 -8 5 -11 3 -8 -6 3 -8 1 -26 -3 -41 -5 -17
-3 -30 3 -34 7 -5 8 -2 3 6 -6 9 -4 11 5 5 11 -7 11 -10 -2 -19 -15 -9 -15
-12 0 -35 15 -24 15 -25 0 -13 -14 12 -16 10 -11 -10 3 -13 10 -28 15 -35 5
-7 5 -14 -2 -18 -5 -3 -10 -11 -10 -16 0 -6 4 -7 10 -4 5 3 10 1 10 -4 0 -6
-5 -11 -12 -11 -7 0 -5 -5 4 -12 19 -15 36 -64 19 -54 -6 4 -11 2 -11 -3 0 -6
7 -11 16 -11 14 0 14 -3 4 -15 -11 -13 -10 -14 5 -9 13 5 16 4 11 -4 -4 -7 -1
-12 8 -12 19 0 47 -40 39 -54 -4 -6 2 -4 12 4 11 9 16 10 11 3 -4 -8 -2 -13 4
-13 6 0 8 -4 5 -10 -3 -5 3 -10 14 -10 10 0 22 -6 24 -12 4 -10 6 -10 6 0 1 6
6 12 12 12 5 0 7 -6 3 -12 -5 -8 0 -7 11 2 11 9 16 10 11 3 -4 -8 -1 -13 9
-13 9 0 13 -5 10 -10 -3 -6 3 -10 15 -10 14 0 19 -4 14 -13 -5 -8 -2 -8 9 2
14 11 20 11 34 0 14 -10 13 -8 -2 10 l-20 24 24 -13 c13 -6 37 -9 55 -6 29 5
30 5 12 -9 -11 -8 -16 -15 -10 -15 5 0 18 7 28 15 24 18 40 19 30 3 -5 -9 -2
-8 9 1 10 8 20 11 24 7 3 -3 1 -6 -5 -6 -7 0 -12 -5 -12 -12 0 -6 7 -4 18 5
22 20 30 21 63 3 21 -11 26 -11 26 0 0 7 -5 10 -10 7 -6 -3 -7 -1 -3 5 7 12
37 5 48 -12 5 -7 8 -7 8 2 0 6 4 12 10 12 5 0 7 -8 4 -18 -5 -14 -4 -14 4 -2
9 12 35 17 97 21 6 0 28 -3 50 -6 81 -12 106 -11 101 2 -3 7 1 10 9 6 8 -3 13
-9 10 -13 -3 -5 0 -12 6 -16 7 -4 9 -3 6 2 -3 6 8 15 25 22 24 9 29 9 20 0 -7
-7 -12 -17 -12 -23 0 -5 4 -4 9 4 8 12 12 13 26 1 13 -11 16 -11 13 0 -2 9 7
13 27 13 20 0 29 -4 27 -13 -2 -10 0 -11 11 -2 15 13 70 18 105 9 19 -5 23 -3
18 10 -5 13 -4 14 9 3 8 -7 12 -17 8 -23 -3 -6 -1 -7 6 -3 6 4 9 12 6 17 -4 5
-1 9 4 9 6 0 11 -6 11 -12 0 -8 3 -9 8 -3 4 6 18 9 32 8 87 -9 100 -8 96 4 -3
7 1 10 9 6 8 -3 13 -9 10 -13 -3 -5 -1 -12 5 -15 6 -4 9 -1 8 6 -3 13 6 14 95
6 27 -2 36 1 33 10 -3 7 1 10 9 6 8 -3 13 -9 10 -13 -3 -5 0 -12 6 -16 7 -4 9
-3 6 2 -3 6 8 15 25 22 24 9 29 9 20 0 -7 -7 -12 -17 -12 -23 0 -5 4 -4 9 4 8
12 12 13 26 1 13 -11 16 -11 13 0 -2 9 7 13 27 13 20 0 29 -4 27 -13 -2 -10 0
-11 11 -2 15 13 70 18 105 9 19 -5 23 -3 18 10 -5 13 -4 14 9 3 8 -7 12 -17 8
-23 -3 -6 -1 -7 6 -3 6 4 9 12 6 17 -4 5 -1 9 4 9 6 0 11 -6 11 -12 0 -8 3 -9
8 -3 4 6 18 9 32 8 87 -9 100 -8 96 4 -3 7 1 10 9 6 8 -3 13 -9 10 -13 -3 -5
-1 -12 5 -15 6 -4 9 -1 8 6 -2 8 9 14 27 15 17 1 24 0 18 -3 -7 -2 -13 -9 -13
-15 0 -6 8 -4 18 5 22 20 30 21 63 3 21 -11 26 -11 26 0 0 7 -5 10 -10 7 -6
-3 -7 -1 -3 5 7 12 37 5 48 -12 5 -7 8 -7 8 2 0 6 4 12 10 12 5 0 7 -8 4 -17
-5 -15 -4 -15 4 -3 6 8 26 15 44 16 18 1 38 2 43 4 27 7 56 -1 49 -12 -5 -9
-2 -8 9 1 10 8 20 11 24 7 3 -3 1 -6 -5 -6 -7 0 -12 -5 -12 -12 0 -6 7 -4 18
5 22 20 30 21 63 3 21 -11 26 -11 26 0 0 7 -5 10 -10 7 -6 -3 -7 -1 -3 5 7 12
37 5 48 -12 5 -7 8 -7 8 2 0 6 4 12 10 12 5 0 6 -8 3 -17 -6 -17 -5 -17 11 0
12 11 27 16 40 13 12 -3 27 -1 35 3 17 11 43 3 35 -11 -3 -5 9 -2 27 7 21 11
29 12 21 4 -6 -7 -12 -18 -12 -24 0 -5 4 -4 9 4 8 12 12 13 26 1 13 -11 16
-11 13 0 -2 9 7 13 27 13 20 0 29 -4 27 -13 -2 -10 0 -11 11 -2 15 13 70 18
105 9 19 -5 23 -3 18 10 -5 13 -4 14 9 3 8 -7 12 -17 8 -23 -3 -6 -1 -7 6 -3
6 4 9 12 6 17 -4 5 -1 9 4 9 6 0 11 -6 11 -12 0 -8 3 -9 8 -3 4 6 18 9 32 8
87 -9 100 -8 96 4 -3 7 1 10 9 6 8 -3 13 -9 10 -13 -3 -5 0 -12 6 -16 7 -4 9
-3 6 2 -3 6 8 15 25 22 24 9 29 9 20 0 -7 -7 -12 -17 -12 -23 0 -5 4 -4 9 4 8
12 12 13 26 1 13 -11 16 -11 13 0 -2 9 7 13 27 13 20 0 29 -4 27 -13 -2 -10 0
-11 11 -2 15 13 70 18 105 9 19 -5 23 -3 18 10 -5 13 -4 14 9 3 8 -7 12 -17 8
-23 -3 -6 -1 -7 6 -3 6 4 9 12 6 17 -4 5 -1 9 4 9 6 0 11 -6 11 -12 0 -8 3 -9
8 -3 4 6 18 9 32 8 87 -9 100 -8 96 4 -3 7 1 10 9 6 8 -3 13 -9 10 -13 -3 -5
0 -12 6 -16 7 -4 9 -3 6 2 -3 6 8 15 25 22 24 9 29 9 20 0 -7 -7 -12 -17 -12
-23 0 -5 4 -4 9 4 8 12 12 13 26 1 13 -11 16 -11 13 0 -2 9 7 13 27 13 20 0
29 -4 27 -13 -2 -10 0 -11 11 -2 15 13 70 18 105 9 19 -5 23 -3 18 10 -5 13
-4 14 9 3 8 -7 12 -17 8 -23 -3 -6 -1 -7 6 -3 6 4 9 12 6 17 -4 5 -1 9 4 9 6
0 11 -6 11 -12 0 -9 3 -9 8 -3 4 6 18 11 32 12 14 1 19 -1 13 -4 -7 -3 -13 -9
-13 -15 0 -6 8 -4 18 5 22 20 30 21 63 3 21 -11 26 -11 26 0 0 7 -5 10 -10 7
-6 -3 -7 -1 -3 5 7 12 37 5 48 -12 5 -7 8 -7 8 2 0 6 4 12 10 12 5 0 7 -8 4
-17 -5 -15 -4 -15 4 -3 6 8 26 15 44 16 18 1 38 2 43 4 27 7 56 -1 49 -12 -5
-9 -2 -8 9 1 10 8 20 11 24 7 3 -3 1 -6 -5 -6 -7 0 -12 -5 -12 -12 0 -6 7 -4
18 5 22 20 30 21 63 3 21 -11 26 -11 26 0 0 7 -5 10 -10 7 -6 -3 -7 -1 -3 5 7
12 37 5 48 -12 5 -7 8 -7 8 2 0 6 4 12 10 12 5 0 7 -8 4 -17 -5 -15 -4 -15 4
-3 9 12 35 17 97 21 6 0 28 -3 50 -6 81 -12 106 -11 101 2 -3 7 1 10 9 6 8 -3
13 -9 10 -13 -3 -5 0 -12 6 -16 7 -4 9 -3 6 2 -3 6 8 15 25 22 24 9 29 9 20 0
-7 -7 -12 -17 -12 -23 0 -5 4 -4 9 4 8 12 12 13 26 1 13 -11 16 -11 13 0 -2 9
7 13 27 13 20 0 29 -4 27 -13 -2 -10 0 -11 11 -2 15 13 70 18 105 9 19 -5 23
-3 18 10 -5 13 -4 14 9 3 8 -7 12 -17 8 -23 -3 -6 -1 -7 6 -3 6 4 9 12 6 17
-4 5 -1 9 4 9 6 0 11 -6 11 -12 0 -8 3 -9 8 -3 4 6 18 9 32 8 87 -9 100 -8 96
4 -3 7 1 10 9 6 8 -3 13 -9 10 -13 -3 -5 -1 -12 5 -15 6 -4 9 -1 8 6 -3 13 6
14 95 6 27 -2 36 1 33 10 -3 7 1 10 9 6 8 -3 13 -9 10 -13 -3 -5 0 -12 6 -16
7 -4 9 -3 6 2 -3 6 8 15 25 22 24 9 29 9 20 0 -7 -7 -12 -17 -12 -23 0 -5 4
-4 9 4 8 12 12 13 26 1 13 -11 16 -11 13 0 -2 9 7 13 27 13 20 0 29 -4 27 -13
-2 -10 0 -11 11 -2 15 13 70 18 105 9 19 -5 23 -3 18 10 -5 13 -4 14 9 3 8 -7
12 -17 8 -23 -3 -6 -1 -7 6 -3 6 4 9 12 6 17 -4 5 -1 9 4 9 6 0 11 -6 11 -12
0 -8 3 -9 8 -3 4 6 18 9 32 8 87 -9 100 -8 96 4 -3 7 1 10 9 6 8 -3 13 -9 10
-13 -3 -5 -1 -12 5 -15 6 -4 9 -1 8 6 -2 8 9 14 27 15 17 1 24 0 18 -3 -7 -2
-13 -9 -13 -15 0 -6 8 -4 18 5 22 20 30 21 63 3 21 -11 26 -11 26 0 0 7 -5 10
-10 7 -6 -3 -7 -1 -3 5 7 12 37 5 48 -12 5 -7 8 -7 8 2 0 6 4 12 10 12 5 0 7
-8 4 -17 -5 -15 -4 -15 4 -3 6 8 26 15 44 16 18 1 38 2 43 4 27 7 56 -1 49
-12 -5 -9 -2 -8 9 1 10 8 20 11 24 7 3 -3 1 -6 -5 -6 -7 0 -12 -5 -12 -12 0
-6 7 -4 18 5 22 20 30 21 63 3 21 -11 26 -11 26 0 0 7 -5 10 -10 7 -6 -3 -7
-1 -3 5 7 12 37 5 48 -12 5 -7 8 -7 8 2 0 6 4 12 10 12 5 0 6 -8 3 -17 -6 -17
-5 -17 11 0 12 11 27 16 40 13 12 -3 27 -1 35 3 17 11 43 3 35 -11 -3 -5 9 -2
27 7 21 11 29 12 22 4 -7 -7 -13 -18 -13 -24 0 -5 4 -4 9 4 8 12 12 13 26 1
13 -11 16 -11 13 0 -2 9 7 13 27 13 20 0 29 -4 27 -13 -2 -10 0 -11 11 -2 15
13 70 18 105 9 19 -5 23 -3 18 10 -5 13 -4 14 9 3 8 -7 12 -17 8 -23 -3 -6 -1
-7 6 -3 6 4 9 12 6 17 -4 5 -1 9 4 9 6 0 11 -6 11 -12 0 -8 3 -9 8 -3 4 6 18
9 32 8 87 -9 100 -8 96 4 -3 7 1 10 9 6 8 -3 13 -9 10 -13 -3 -5 0 -12 6 -16
7 -4 9 -3 6 2 -3 6 8 15 25 22 24 9 29 9 20 0 -7 -7 -12 -17 -12 -23 0 -5 4
-4 9 4 8 12 12 13 26 1 13 -11 16 -11 13 0 -2 9 7 13 27 13 20 0 29 -4 27 -13
-2 -10 0 -11 11 -2 15 13 70 18 105 9 19 -5 23 -3 18 10 -5 13 -4 14 9 3 8 -7
12 -17 8 -23 -3 -6 -1 -7 6 -3 6 4 9 12 6 17 -4 5 -1 9 4 9 6 0 11 -6 11 -12
0 -8 3 -9 8 -3 4 6 18 9 32 8 87 -9 100 -8 96 4 -3 7 1 10 9 6 8 -3 13 -9 10
-13 -3 -5 0 -12 6 -16 7 -4 9 -3 6 2 -3 6 8 15 25 22 24 9 29 9 20 0 -7 -7
-12 -17 -12 -23 0 -5 4 -4 9 4 8 12 12 13 26 1 13 -11 16 -11 13 0 -2 9 7 13
27 13 20 0 29 -4 27 -13 -2 -10 0 -11 11 -2 15 13 70 18 105 9 19 -5 23 -3 18
10 -5 13 -4 14 9 3 8 -7 12 -17 8 -23 -3 -6 -1 -7 6 -3 6 4 9 12 6 17 -4 5 -1
9 4 9 6 0 11 -6 11 -12 0 -9 3 -9 8 -3 4 6 18 11 32 12 14 1 19 -1 13 -4 -7
-3 -13 -9 -13 -15 0 -6 8 -4 18 5 22 20 30 21 63 3 21 -11 26 -11 26 0 0 7 -5
10 -10 7 -6 -3 -7 -1 -3 5 7 12 37 5 48 -12 5 -7 8 -7 8 2 0 6 4 12 10 12 5 0
7 -8 4 -17 -5 -15 -4 -15 4 -3 6 8 26 15 44 16 18 1 38 2 43 4 27 7 56 -1 49
-12 -5 -9 -2 -8 9 1 10 8 20 11 24 7 3 -3 1 -6 -5 -6 -7 0 -12 -5 -12 -12 0
-6 7 -4 18 5 22 20 30 21 63 3 21 -11 26 -11 26 0 0 7 -5 10 -10 7 -6 -3 -7
-1 -3 5 7 12 37 5 48 -12 5 -7 8 -7 8 2 0 6 4 12 10 12 5 0 7 -8 4 -18 -5 -14
-4 -14 4 -2 6 8 26 15 44 16 18 1 38 2 43 4 27 7 56 -1 49 -13 -5 -8 -2 -7 9
2 10 8 20 11 24 7 3 -3 1 -6 -5 -6 -7 0 -12 -5 -12 -12 0 -6 7 -4 18 5 22 20
30 21 63 3 21 -11 26 -11 26 0 0 7 -5 10 -10 7 -6 -3 -7 -1 -3 5 7 12 37 5 48
-12 5 -7 8 -7 8 2 0 6 4 12 10 12 5 0 7 -8 4 -18 -5 -14 -4 -14 4 -2 6 8 26
15 44 16 18 1 38 2 43 4 27 7 56 -1 49 -12 -5 -9 -2 -8 9 1 10 8 20 11 24 7 3
-3 1 -6 -5 -6 -7 0 -12 -5 -12 -12 0 -6 7 -4 18 5 22 20 30 21 63 3 21 -11 26
-11 26 0 0 7 -5 10 -10 7 -6 -3 -7 -1 -3 5 7 12 37 5 48 -12 5 -7 8 -7 8 2 0
6 4 12 10 12 5 0 6 -8 3 -17 -6 -17 -5 -17 11 0 12 11 27 16 40 13 12 -3 27
-1 35 3 17 11 43 3 35 -11 -3 -5 9 -2 27 7 21 11 29 12 22 4 -7 -7 -13 -18
-13 -24 0 -5 4 -4 9 4 8 12 12 13 26 1 13 -11 16 -11 13 0 -2 9 7 13 27 13 20
0 29 -4 27 -13 -2 -10 0 -11 11 -2 15 13 70 18 105 9 19 -5 23 -3 18 10 -5 13
-4 14 9 3 8 -7 12 -17 8 -23 -3 -6 -1 -7 6 -3 6 4 9 12 6 17 -4 5 -1 9 4 9 6
0 11 -6 11 -12 0 -8 3 -9 8 -3 4 6 18 9 32 8 87 -9 100 -8 96 4 -3 7 1 10 9 6
8 -3 13 -9 10 -13 -3 -5 0 -12 6 -16 7 -4 9 -3 6 2 -3 6 8 15 25 22 24 9 29 9
20 0 -7 -7 -12 -17 -12 -23 0 -5 4 -4 9 4 8 12 12 13 26 1 13 -11 16 -11 13 0
-2 9 7 13 27 13 20 0 29 -4 27 -13 -2 -10 0 -11 11 -2 15 13 70 18 105 9 19
-5 23 -3 18 10 -5 13 -4 14 9 3 8 -7 12 -17 8 -23 -3 -6 -1 -7 6 -3 6 4 9 12
6 17 -4 5 -1 9 4 9 6 0 11 -6 11 -12 0 -8 3 -9 8 -3 4 6 18 9 32 8 87 -9 100
-8 96 4 -3 7 1 10 9 6 8 -3 13 -9 10 -13 -3 -5 0 -12 6 -16 7 -4 9 -3 6 2 -3
6 8 15 25 22 24 9 29 9 20 0 -7 -7 -12 -17 -12 -23 0 -5 4 -4 9 4 8 12 12 13
26 1 13 -11 16 -11 13 0 -2 9 7 13 27 13 20 0 29 -4 27 -13 -2 -10 0 -11 11
-2 15 13 70 18 105 9 19 -5 23 -3 18 10 -5 13 -4 14 9 3 8 -7 12 -17 8 -23 -3
-6 -1 -7 6 -3 6 4 9 12 6 17 -4 5 -1 9 4 9 6 0 11 -6 11 -12 0 -9 3 -9 8 -3 4
6 18 11 32 12 14 1 19 -1 13 -4 -7 -3 -13 -9 -13 -15 0 -6 8 -4 18 5 22 20 30
21 63 3 21 -11 26 -11 26 0 0 7 -5 10 -10 7 -6 -3 -7 -1 -3 5 7 12 37 5 48
-12 5 -7 8 -7 8 2 0 6 4 12 10 12 5 0 7 -8 4 -17 -5 -15 -4 -15 4 -3 6 8 26
15 44 16 18 1 38 2 43 4 27 7 56 -1 49 -12 -5 -9 -2 -8 9 1 10 8 20 11 24 7 3
-3 1 -6 -5 -6 -7 0 -12 -5 -12 -12 0 -6 7 -4 18 5 22 20 30 21 63 3 21 -11 26
-11 26 0 0 7 -5 10 -10 7 -6 -3 -7 -1 -3 5 7 12 37 5 48 -12 5 -7 8 -7 8 2 0
6 4 12 10 12 5 0 7 -8 4 -18 -5 -14 -4 -14 4 -2 9 12 35 17 97 21 6 0 28 -3
50 -6 81 -12 106 -11 101 2 -3 7 1 10 9 6 8 -3 13 -9 10 -13 -3 -5 0 -12 6
-16 7 -4 9 -3 6 2 -3 6 8 15 25 22 24 9 29 9 20 0 -7 -7 -12 -17 -12 -23 0 -5
4 -4 9 4 8 12 12 13 26 1 13 -11 16 -11 13 0 -2 9 7 13 27 13 19 0 29 -5 27
-12 -1 -7 2 -10 8 -6 6 3 8 10 5 15 -3 5 0 12 6 16 7 4 9 3 5 -4 -3 -6 -2 -13
4 -17 5 -3 10 -1 10 6 0 8 4 8 15 -1 13 -11 14 -10 9 4 -4 11 -2 16 7 14 8 -2
13 3 11 10 -1 8 2 11 8 7 6 -3 8 -12 4 -18 -3 -7 1 -4 9 6 16 20 32 23 21 5
-6 -9 -3 -9 9 0 9 8 21 11 27 7 5 -3 10 -1 10 5 0 6 5 8 13 4 9 -6 9 -5 0 8
-14 17 -8 29 12 22 7 -3 16 0 21 7 4 7 3 10 -3 6 -5 -3 -10 0 -10 7 0 8 8 11
19 8 13 -3 22 4 32 28 9 23 15 28 20 19 3 -8 4 -2 2 14 -2 15 1 27 6 27 5 0 6
5 3 10 -4 6 -11 8 -16 5 -5 -4 -9 -4 -9 0 0 3 12 10 28 16 15 7 22 13 15 16
-16 6 -17 24 -2 20 6 -1 14 4 17 12 2 8 0 11 -6 7 -7 -4 -9 6 -8 26 2 18 -2
39 -8 47 -9 12 -8 13 3 6 11 -6 13 -4 8 8 -4 10 -1 17 6 17 8 0 6 4 -3 10 -13
9 -13 10 0 10 10 0 11 3 4 8 -9 5 -12 67 -4 67 1 0 3 11 6 25 3 16 1 20 -4 12
-6 -8 -9 11 -8 47 0 35 5 61 11 61 5 0 3 5 -5 10 -13 9 -13 10 0 10 9 0 11 3
4 8 -11 8 -14 103 -2 96 3 -2 10 1 14 7 4 7 3 9 -2 6 -6 -3 -16 -2 -24 4 -12
7 -11 9 5 9 17 0 17 2 5 10 -13 9 -13 10 0 10 13 0 13 1 0 10 -13 9 -13 10 0
10 13 0 13 1 0 10 -13 9 -13 10 0 10 11 0 12 2 3 8 -7 5 -10 19 -8 35 4 18 1
27 -7 28 -7 0 -4 4 7 9 11 5 15 9 9 9 -12 1 -13 46 -1 57 4 4 7 12 7 18 0 6
-4 5 -9 -3 -5 -8 -8 9 -7 45 0 33 5 62 11 66 6 5 4 8 -5 8 -13 0 -13 1 0 10
10 6 11 10 3 10 -7 0 -13 5 -13 11 0 5 4 8 8 5 5 -3 9 1 9 9 0 8 -4 12 -9 9
-4 -3 -8 -1 -8 5 0 5 7 14 16 19 15 8 15 10 0 15 -9 4 -16 11 -16 17 0 6 4 9
8 6 5 -3 9 1 9 9 0 8 -3 12 -7 10 -3 -2 -7 5 -7 16 -2 17 1 18 13 9 8 -8 14
-8 14 -2 0 5 -7 13 -15 16 -13 5 -14 10 -4 27 8 15 8 19 0 15 -6 -4 -11 -3
-11 3 0 5 7 14 16 19 15 8 15 10 0 15 -9 4 -16 11 -16 17 0 6 4 9 8 6 5 -3 9
1 9 9 0 8 -3 12 -7 10 -3 -2 -7 5 -7 16 -2 17 1 18 13 9 8 -8 14 -8 14 -2 0 5
-7 13 -15 16 -13 5 -14 10 -4 27 8 15 8 19 0 15 -6 -4 -11 -3 -11 3 0 5 7 14
16 19 15 8 15 10 0 15 -9 4 -16 11 -16 17 0 6 4 9 8 6 5 -3 9 1 9 9 0 8 -3 12
-7 10 -3 -2 -7 5 -7 16 -2 17 1 18 13 9 8 -8 14 -8 14 -2 0 5 -7 13 -15 16
-13 5 -14 10 -4 27 8 15 8 19 0 15 -6 -4 -11 -3 -11 3 0 5 7 14 16 19 15 8 15
10 0 15 -9 4 -16 11 -16 17 0 6 4 9 8 6 5 -3 9 1 9 9 0 8 -3 12 -7 10 -3 -2
-7 5 -7 16 -2 17 1 18 13 9 8 -8 14 -8 14 -2 0 5 -7 13 -15 16 -13 5 -14 10
-4 27 8 15 8 19 0 15 -6 -4 -11 -3 -11 3 0 5 7 14 16 19 15 8 15 10 0 15 -9 4
-16 11 -16 17 0 6 4 9 8 6 5 -3 9 1 9 9 0 8 -3 12 -7 10 -3 -2 -7 5 -7 16 -2
17 1 18 13 9 8 -8 14 -8 14 -2 0 5 -7 13 -15 16 -13 5 -14 10 -4 27 8 15 8 19
0 15 -6 -4 -11 -3 -11 3 0 5 7 14 16 19 15 8 15 10 0 15 -9 4 -16 11 -16 17 0
6 4 9 8 6 5 -3 9 1 9 9 0 8 -3 12 -7 10 -3 -2 -7 5 -7 16 -2 17 1 18 13 9 8
-8 14 -8 14 -2 0 5 -7 13 -15 16 -13 5 -14 10 -4 27 8 15 8 19 0 15 -6 -4 -11
-3 -11 3 0 5 7 14 16 19 15 8 15 10 0 15 -9 4 -16 11 -16 17 0 6 4 9 8 6 5 -3
9 1 9 9 0 8 -3 12 -7 10 -3 -2 -7 5 -7 16 -2 17 1 18 13 9 8 -8 14 -8 14 -2 0
5 -7 13 -15 16 -13 5 -14 10 -4 27 8 15 8 19 0 15 -6 -4 -11 -3 -11 3 0 5 7
14 16 19 15 8 15 10 0 15 -9 4 -16 11 -16 17 0 6 4 9 8 6 5 -3 9 1 9 9 0 8 -3
12 -7 10 -3 -2 -7 5 -7 16 -2 17 1 18 13 9 9 -8 14 -9 14 -2 0 6 -5 12 -12 14
-14 5 -17 58 -3 58 5 0 3 5 -5 10 -13 9 -13 10 0 10 10 0 11 3 4 8 -9 5 -12
67 -4 67 1 0 3 11 6 25 3 16 1 20 -4 12 -6 -8 -9 11 -8 47 0 35 5 61 11 61 5
0 3 5 -5 10 -13 9 -13 10 0 10 9 0 11 3 4 8 -11 8 -14 103 -2 96 3 -2 10 1 14
7 4 7 3 9 -2 6 -6 -3 -16 -2 -24 4 -12 7 -11 9 5 9 17 0 17 2 5 10 -13 9 -13
10 0 10 13 0 13 1 0 10 -13 9 -13 10 0 10 13 0 13 1 0 10 -13 9 -13 10 0 10
11 0 12 2 3 8 -7 5 -10 19 -8 35 4 18 1 27 -7 28 -7 0 -4 4 7 9 11 5 15 9 9 9
-12 1 -13 46 -1 57 4 4 7 12 7 18 0 6 -4 5 -9 -2 -4 -8 -8 12 -7 47 0 35 5 61
11 61 5 0 3 5 -5 10 -13 9 -13 10 0 10 9 0 11 3 4 8 -11 8 -14 103 -2 96 3 -2
10 1 14 7 4 7 3 9 -2 6 -6 -3 -16 -2 -24 4 -12 7 -11 9 5 9 17 0 17 2 5 10
-13 9 -13 10 0 10 13 0 13 1 0 10 -13 9 -13 10 0 10 13 0 13 1 0 10 -13 9 -13
10 0 10 11 0 12 2 3 8 -7 5 -10 19 -8 35 4 18 1 27 -7 28 -7 0 -4 4 7 9 11 5
15 9 9 9 -12 1 -13 46 -1 57 4 4 7 12 7 18 0 6 -4 5 -9 -3 -5 -8 -8 9 -7 45 0
33 5 62 11 66 6 5 4 8 -5 8 -13 0 -13 1 0 10 10 6 11 10 3 10 -7 0 -13 5 -13
11 0 5 4 8 8 5 5 -3 9 1 9 9 0 8 -4 12 -9 9 -4 -3 -8 -1 -8 5 0 5 7 14 16 19
15 8 15 10 0 15 -9 4 -16 11 -16 17 0 6 4 9 8 6 5 -3 9 1 9 9 0 8 -3 12 -7 10
-3 -2 -7 5 -7 16 -2 17 1 18 13 9 8 -8 14 -8 14 -2 0 5 -7 13 -15 16 -13 5
-14 10 -4 27 8 15 8 19 0 15 -6 -4 -11 -3 -11 3 0 5 7 14 16 19 15 8 15 10 0
15 -9 4 -16 11 -16 17 0 6 4 9 8 6 5 -3 9 1 9 9 0 8 -3 12 -7 10 -3 -2 -7 5
-7 16 -2 17 1 18 13 9 8 -8 14 -8 14 -2 0 5 -7 13 -15 16 -13 5 -14 10 -4 27
8 15 8 19 0 15 -6 -4 -11 -3 -11 3 0 5 7 14 16 19 15 8 15 10 0 15 -9 4 -16
11 -16 17 0 6 4 9 8 6 5 -3 9 1 9 9 0 8 -3 12 -7 10 -3 -2 -7 5 -7 16 -2 17 1
18 13 9 8 -8 14 -8 14 -2 0 5 -7 13 -15 16 -13 5 -14 10 -4 27 8 15 8 19 0 15
-6 -4 -11 -3 -11 3 0 5 7 14 16 19 15 8 15 10 0 15 -9 4 -16 11 -16 17 0 6 4
9 8 6 5 -3 9 1 9 9 0 8 -3 12 -7 10 -3 -2 -7 5 -7 16 -2 17 1 18 13 9 9 -8 14
-9 14 -2 0 6 -5 12 -12 14 -14 5 -17 58 -3 58 5 0 3 5 -5 10 -13 9 -13 10 0
10 10 0 11 3 4 8 -9 5 -12 67 -4 67 1 0 3 11 6 25 3 16 1 20 -4 12 -6 -8 -9
11 -8 47 0 35 5 61 11 61 5 0 3 5 -5 10 -13 9 -13 10 0 10 9 0 11 3 4 8 -11 8
-14 103 -2 96 3 -2 10 1 14 7 4 7 3 9 -2 6 -6 -3 -16 -2 -24 4 -12 7 -11 9 5
9 17 0 17 2 5 10 -13 9 -13 10 0 10 13 0 13 1 0 10 -13 9 -13 10 0 10 13 0 13
1 0 10 -13 9 -13 10 0 10 11 0 12 2 3 8 -7 5 -10 19 -8 35 4 18 1 27 -7 28 -7
0 -4 4 7 9 11 5 15 9 9 9 -12 1 -13 46 -1 57 4 4 7 12 7 18 0 6 -4 5 -9 -2 -4
-8 -8 12 -7 47 0 35 5 61 11 61 5 0 3 5 -5 10 -13 9 -13 10 0 10 9 0 11 3 4 8
-11 8 -14 103 -2 96 3 -2 10 1 14 7 4 7 3 9 -2 6 -6 -3 -16 -2 -24 4 -12 7
-11 9 5 9 17 0 17 2 5 10 -13 9 -13 10 0 10 13 0 13 1 0 10 -13 9 -13 10 0 10
13 0 13 1 0 10 -13 9 -13 10 0 10 11 0 12 2 3 8 -7 5 -10 19 -8 35 4 18 1 27
-7 28 -7 0 -4 4 7 9 11 5 15 9 9 9 -12 1 -13 46 -1 57 4 4 7 12 7 18 0 6 -4 5
-9 -3 -5 -8 -8 9 -7 45 0 33 5 62 11 66 6 5 4 8 -5 8 -13 0 -13 1 0 10 10 6
11 10 3 10 -7 0 -13 5 -13 11 0 5 4 8 8 5 5 -3 9 1 9 9 0 8 -4 12 -9 9 -4 -3
-8 -1 -8 5 0 5 7 14 16 19 15 8 15 10 0 15 -9 4 -16 11 -16 17 0 6 4 9 8 6 5
-3 9 1 9 9 0 8 -3 12 -7 10 -3 -2 -7 5 -7 16 -2 17 1 18 13 9 8 -8 14 -8 14
-2 0 5 -7 13 -15 16 -13 5 -14 10 -4 27 8 15 8 19 0 15 -6 -4 -11 -3 -11 3 0
5 7 14 16 19 15 8 15 10 0 15 -9 4 -16 11 -16 17 0 6 4 9 8 6 5 -3 9 1 9 9 0
8 -3 12 -7 10 -3 -2 -7 5 -7 16 -2 17 1 18 13 9 8 -8 14 -8 14 -2 0 5 -7 13
-15 16 -13 5 -14 10 -4 27 8 15 8 19 0 15 -6 -4 -11 -3 -11 3 0 5 7 14 16 19
15 8 15 10 0 15 -9 4 -16 11 -16 17 0 6 4 9 8 6 5 -3 9 1 9 9 0 8 -3 12 -7 10
-3 -2 -7 5 -7 16 -2 17 1 18 13 9 8 -8 14 -8 14 -2 0 5 -7 13 -15 16 -13 5
-14 10 -4 27 8 15 8 19 0 15 -6 -4 -11 -3 -11 3 0 5 7 14 16 19 15 8 15 10 0
15 -9 4 -16 11 -16 17 0 6 4 9 8 6 5 -3 9 1 9 9 0 8 -3 12 -7 10 -3 -2 -7 5
-7 16 -2 17 1 18 13 9 9 -8 14 -9 14 -2 0 6 -5 12 -12 14 -14 5 -17 58 -3 58
5 0 3 5 -5 10 -13 9 -13 10 0 10 10 0 11 3 4 8 -9 5 -12 67 -4 67 1 0 3 11 6
25 3 16 1 20 -4 12 -6 -8 -9 11 -8 47 0 35 5 61 11 61 5 0 3 5 -5 10 -13 9
-13 10 0 10 9 0 11 3 4 8 -11 8 -14 103 -2 96 3 -2 10 1 14 7 4 7 3 9 -2 6 -6
-3 -16 -2 -24 4 -12 7 -11 9 5 9 17 0 17 2 5 10 -13 9 -13 10 0 10 13 0 13 1
0 10 -13 9 -13 10 0 10 13 0 13 1 0 10 -13 9 -13 10 0 10 11 0 12 2 3 8 -7 5
-10 19 -8 35 4 18 1 27 -7 28 -7 0 -4 4 7 9 11 5 15 9 9 9 -12 1 -13 46 -1 57
4 4 7 12 7 18 0 6 -4 5 -9 -2 -4 -8 -8 12 -7 47 0 35 5 61 11 61 5 0 3 5 -5
10 -13 9 -13 10 0 10 9 0 11 3 4 8 -11 8 -14 103 -2 96 3 -2 10 1 14 7 4 7 3
9 -2 6 -6 -3 -16 -2 -24 4 -12 7 -11 9 5 9 17 0 17 2 5 10 -13 9 -13 10 0 10
13 0 13 1 0 10 -13 9 -13 10 0 10 13 0 13 1 0 10 -13 9 -13 10 0 10 11 0 12 2
3 8 -7 5 -10 19 -8 35 4 18 1 27 -7 28 -7 0 -4 4 7 9 11 5 15 9 9 9 -12 1 -13
46 -1 57 4 4 7 12 7 18 0 6 -4 5 -9 -3 -5 -8 -8 9 -7 45 0 33 5 62 11 66 6 5
4 8 -5 8 -13 0 -13 1 0 10 10 6 11 10 3 10 -7 0 -13 5 -13 11 0 5 4 8 8 5 5
-3 9 1 9 9 0 8 -4 12 -9 9 -4 -3 -8 -1 -8 5 0 5 7 14 16 19 15 8 15 10 0 15
-9 4 -16 11 -16 17 0 6 4 9 8 6 5 -3 9 1 9 9 0 8 -3 12 -7 10 -3 -2 -7 5 -7
16 -2 17 1 18 13 9 8 -8 14 -8 14 -2 0 5 -7 13 -15 16 -13 5 -14 10 -4 27 8
15 8 19 0 15 -6 -4 -11 -3 -11 3 0 5 7 14 16 19 15 8 15 10 0 15 -9 4 -16 11
-16 17 0 6 4 9 8 6 5 -3 9 1 9 9 0 8 -3 12 -7 10 -3 -2 -7 5 -7 16 -2 17 1 18
13 9 8 -8 14 -8 14 -2 0 5 -7 13 -15 16 -13 5 -14 10 -4 27 6 12 7 19 2 16 -5
-3 -10 3 -10 14 -2 17 1 18 13 9 9 -8 14 -9 14 -2 0 6 -5 12 -12 14 -6 2 -12
14 -13 27 -1 16 3 20 14 16 13 -4 12 -2 -1 9 -20 15 -25 41 -6 30 8 -5 9 -2 5
10 -5 13 -3 17 7 13 9 -4 13 -1 10 6 -2 7 6 13 21 13 14 1 23 -2 20 -6 -3 -5
0 -12 6 -16 7 -4 9 -3 5 4 -3 6 -2 13 3 16 15 10 40 -4 46 -25 5 -16 10 -18
21 -8 8 6 14 7 14 2 0 -5 9 -9 19 -9 11 0 17 4 15 8 -3 4 2 8 11 8 10 0 13 -5
9 -12 -4 -7 -4 -10 1 -6 4 4 15 2 24 -5 14 -11 14 -10 2 6 -8 10 -9 17 -3 17
6 0 14 -5 17 -10 4 -7 12 -7 18 -2 7 4 29 7 50 6 20 -1 40 3 43 7 3 5 10 7 15
4 5 -4 9 1 9 9 0 8 5 18 12 22 8 5 9 1 5 -12 -7 -18 -6 -18 7 -1 10 14 15 15
19 5 3 -7 6 -2 6 12 1 20 3 22 11 10 8 -12 10 -12 10 -1 0 8 7 11 20 8 11 -3
17 -1 14 4 -8 14 17 41 32 35 8 -3 13 0 11 7 -1 7 8 12 20 11 12 0 19 4 16 9
-4 6 1 8 12 3 15 -5 16 -4 5 9 -8 10 -9 15 -1 15 6 0 10 3 10 8 -4 21 3 31 16
25 9 -3 15 -2 14 3 -4 23 2 36 15 31 10 -4 13 -1 10 7 -3 7 5 18 18 24 13 6
17 11 11 11 -8 1 -5 9 8 22 11 11 18 26 16 32 -2 7 3 18 12 25 9 8 10 11 3 7
-8 -4 -11 1 -8 17 2 13 10 22 17 20 10 -3 10 0 0 12 -11 13 -11 17 1 21 10 4
14 20 13 50 -1 38 1 42 14 32 12 -10 12 -9 1 10 -8 12 -17 20 -20 18 -4 -2 -7
2 -7 10 0 11 5 12 21 3 l21 -11 -20 22 c-19 22 -19 23 0 37 17 13 14 19 -8 15
-5 -1 -6 3 -2 8 3 6 12 8 19 5 9 -3 12 4 11 26 -1 16 3 30 9 31 6 0 2 4 -9 9
-11 5 -15 9 -8 9 7 1 10 9 7 19 -5 14 -3 14 10 -2 9 -11 16 -15 16 -9 0 7 -5
15 -10 18 -6 4 -7 11 -4 17 5 8 1 9 -12 5 -18 -7 -18 -7 0 8 11 8 14 15 8 15
-7 0 -12 5 -12 11 0 5 4 8 8 5 5 -3 9 1 9 9 0 8 -5 11 -11 8 -6 -4 -5 1 3 10
9 11 10 17 2 17 -6 0 -11 5 -11 11 0 5 4 8 9 5 5 -4 7 8 4 25 -3 23 -1 29 8
24 8 -5 10 -4 5 3 -4 7 -15 12 -24 12 -13 0 -13 2 4 14 15 12 16 17 7 27 -8 8
-9 18 -2 31 6 12 6 18 -1 18 -5 0 -10 5 -10 11 0 5 4 8 8 5 4 -2 8 6 8 19 0
13 -3 22 -7 19 -4 -2 -7 5 -6 16 1 13 6 19 15 15 10 -3 12 0 8 10 -3 8 -1 15
4 15 6 0 10 5 10 11 0 5 -5 7 -11 4 -6 -4 -5 3 3 15 10 18 10 24 1 27 -10 4
-9 8 2 19 11 12 12 20 5 35 -6 10 -7 19 -3 19 4 0 2 5 -4 11 -9 9 -7 18 5 37
16 25 16 26 -2 19 -15 -6 -16 -5 -8 6 14 16 24 69 12 62 -5 -3 -11 -1 -15 5
-3 5 1 10 9 10 9 0 16 5 16 11 0 5 -5 7 -11 3 -8 -4 -9 1 -4 15 4 13 1 29 -7
38 -11 14 -11 16 2 11 12 -4 15 2 14 28 -1 19 3 34 8 34 7 0 7 5 -1 13 -7 10
-7 17 0 24 8 8 7 13 -2 18 -7 5 -10 4 -5 -3 3 -6 2 -13 -4 -17 -12 -7 -12 11
-1 40 5 12 3 25 -6 33 -7 7 -13 18 -13 25 0 6 7 2 15 -9 14 -18 14 -18 8 4 -3
12 -12 22 -20 22 -8 0 -11 5 -8 10 3 6 2 10 -3 10 -12 0 -12 32 1 48 6 8 6 12
-3 12 -10 0 -10 3 0 15 9 10 9 15 1 15 -6 0 -11 5 -11 11 0 5 4 8 8 5 5 -3 9
1 9 9 0 8 -4 12 -8 9 -4 -2 -8 4 -8 13 -1 39 -5 52 -13 47 -5 -3 -5 -10 -2
-16 4 -7 2 -8 -4 -4 -6 4 -9 13 -5 21 3 9 -1 23 -8 32 -12 15 -12 16 5 10 15
-6 17 -5 8 6 -7 8 -8 17 -4 21 4 4 2 7 -3 6 -20 -4 -35 0 -35 11 0 5 6 7 13 3
10 -6 10 -4 0 7 -15 15 -17 33 -4 25 15 -10 7 28 -9 41 -13 11 -13 12 0 13 10
1 9 4 -4 9 -11 4 -20 15 -22 24 -1 10 1 15 4 13 4 -2 7 7 7 20 0 16 -5 22 -13
19 -8 -3 -10 0 -5 8 11 18 12 37 2 37 -6 0 -7 5 -4 10 4 6 3 10 -2 9 -20 -4
-24 2 -12 18 10 11 10 14 2 9 -16 -9 -17 6 -1 22 12 12 10 13 -13 16 -6 0 -18
11 -27 24 -13 20 -13 22 1 17 8 -4 18 -1 22 5 3 6 3 9 -2 8 -4 -2 -9 1 -10 6
-1 5 -7 13 -15 17 -10 7 -10 9 0 9 10 0 10 3 0 14 -7 8 -17 11 -23 8 -5 -3 -3
3 5 13 14 17 13 18 -4 11 -20 -7 -20 -7 0 15 10 12 14 19 7 16 -14 -8 -27 27
-18 45 4 7 -1 4 -10 -7 -16 -19 -16 -19 -9 9 6 23 4 27 -7 21 -12 -7 -12 -6 0
9 8 9 10 16 5 15 -5 -1 -16 -1 -24 0 -13 1 -13 2 0 11 11 7 12 10 2 10 -9 0
-11 7 -7 20 4 12 2 20 -5 20 -6 0 -8 -4 -5 -10 3 -5 3 -10 -2 -10 -4 0 -13 12
-20 26 -10 22 -10 24 3 14 24 -20 16 -3 -12 25 -14 14 -22 30 -19 35 3 6 -1 7
-9 4 -11 -4 -16 0 -17 15 -2 36 -4 40 -21 61 -10 11 -18 27 -18 36 0 8 -4 12
-10 9 -5 -3 -10 1 -10 10 0 10 -5 13 -12 9 -8 -5 -9 -2 -4 11 5 15 4 16 -9 5
-12 -10 -15 -10 -15 4 0 9 -6 16 -12 16 -9 0 -8 4 2 10 13 8 13 10 -2 10 -21
0 -32 16 -17 26 8 5 9 3 4 -6 -5 -9 -4 -11 4 -6 14 9 5 26 -15 26 -8 0 -12 5
-9 10 3 6 1 10 -5 10 -6 0 -9 4 -6 8 7 11 -29 64 -37 55 -4 -3 -7 1 -7 11 0
11 -4 15 -12 10 -9 -5 -8 -2 1 9 12 15 12 17 -3 11 -12 -5 -15 -2 -10 10 8 20
-24 59 -41 52 -7 -2 -12 3 -12 12 0 35 -3 42 -18 42 -8 0 -17 11 -21 25 -3 14
-10 23 -14 20 -5 -3 -12 4 -15 16 -6 17 -9 19 -17 8 -7 -10 -9 -8 -5 8 4 17 1
21 -14 18 -11 -2 -19 1 -19 6 0 5 -5 15 -10 22 -6 7 -17 21 -25 32 l-15 20 6
-20 c5 -16 4 -17 -5 -5 -6 8 -11 24 -11 35 0 13 -3 16 -8 8 -5 -9 -17 -3 -40
18 -18 16 -32 33 -32 36 0 4 15 -6 33 -23 l32 -29 -29 33 c-17 17 -36 32 -43
32 -8 0 -11 5 -7 12 5 8 2 9 -10 5 -14 -5 -17 -3 -12 8 3 8 0 15 -6 15 -6 0
-24 16 -41 35 -16 19 -34 35 -39 35 -6 0 0 -9 13 -20 l24 -20 -27 11 c-16 7
-28 19 -28 26 0 8 -4 11 -10 8 -5 -3 -10 1 -10 9 0 10 -9 16 -22 16 -19 0 -20
2 -8 10 13 9 13 10 0 11 -8 1 -19 1 -24 0 -5 -1 -4 4 2 12 9 11 6 13 -20 9
-27 -4 -30 -2 -24 14 6 15 5 17 -5 7 -7 -7 -18 -13 -23 -13 -6 0 -4 4 4 10 12
8 12 10 -4 16 -14 5 -15 9 -4 16 10 7 9 8 -4 4 -21 -6 -50 3 -43 14 3 4 -2 11
-11 14 -8 3 -13 2 -10 -2 3 -5 -1 -9 -8 -9 -9 0 -12 7 -9 16 5 13 3 14 -7 4
-11 -10 -17 -7 -33 15 -10 15 -17 19 -13 10 7 -23 -9 -23 -26 0 -14 20 -45 42
-35 24 5 -6 -1 -8 -15 -4 -12 3 -17 7 -10 10 20 6 14 21 -7 15 -18 -5 -36 20
-26 36 2 5 -7 7 -22 5 -24 -2 -58 18 -48 28 3 3 -2 5 -10 5 -8 0 -12 -4 -9 -9
4 -5 -3 -4 -14 3 -12 7 -18 18 -14 24 3 5 -3 3 -13 -5 -10 -8 -16 -10 -13 -5
3 6 0 16 -8 23 -8 7 -14 8 -14 2 0 -5 -5 -10 -11 -10 -5 0 -8 3 -6 8 3 4 -1
13 -9 20 -11 10 -14 10 -14 0 0 -10 -2 -10 -9 0 -4 8 -11 13 -15 13 -24 -3
-28 0 -16 14 11 13 10 14 -3 10 -8 -4 -18 -2 -22 4 -3 6 -11 11 -18 11 -6 0
-2 -7 9 -16 18 -15 18 -15 -2 -5 -12 6 -25 7 -29 3 -5 -4 -5 -1 -1 6 12 20 -4
35 -22 20 -12 -10 -14 -10 -8 0 4 7 1 12 -8 12 -9 0 -16 4 -16 10 0 5 -8 6
-17 3 -16 -6 -16 -4 -5 9 11 14 10 16 -7 11 -12 -3 -18 -10 -14 -16 3 -6 1 -7
-6 -3 -6 4 -9 11 -7 15 3 4 -4 12 -15 19 -12 8 -19 9 -19 1 0 -5 -5 -7 -10 -4
-6 4 -8 10 -5 15 3 5 0 12 -6 16 -8 4 -9 3 -5 -4 4 -7 2 -12 -3 -12 -6 0 -11
6 -11 13 0 8 -6 14 -12 15 -7 0 -23 3 -36 6 -13 3 -20 1 -17 -5 4 -5 1 -9 -4
-9 -11 0 -15 15 -12 34 1 5 -5 4 -13 -4 -12 -9 -16 -9 -16 -1 0 7 -4 10 -9 6
-6 -3 -14 3 -20 12 -6 10 -11 15 -11 10 0 -4 -15 0 -32 9 -31 16 -32 16 -19 0
12 -14 12 -16 -3 -10 -9 3 -16 10 -16 15 0 5 -7 9 -16 9 -9 0 -12 5 -8 12 5 8
2 9 -9 5 -10 -4 -23 3 -35 18 -15 19 -22 21 -31 12 -10 -9 -11 -8 -5 7 5 13 4
17 -4 12 -7 -4 -12 -2 -12 6 0 9 -3 9 -10 -2 -5 -8 -10 -10 -10 -5 0 6 -14 16
-30 23 -17 8 -28 18 -25 23 4 5 0 6 -8 3 -8 -3 -17 1 -20 9 -3 9 -16 13 -31
12 -24 -3 -30 4 -27 30 1 6 -6 1 -15 -10 -16 -20 -16 -19 -9 5 6 21 5 23 -6
12 -11 -10 -17 -8 -32 10 -10 13 -15 17 -11 9 5 -10 3 -12 -5 -7 -7 5 -10 14
-8 20 3 7 0 13 -6 13 -7 0 -21 4 -31 9 -15 6 -17 4 -11 -7 8 -12 6 -12 -8 0
-22 18 -22 32 1 24 9 -3 14 -3 11 1 -9 10 -51 17 -45 7 3 -4 -1 -8 -9 -8 -8 0
-11 5 -8 10 4 6 0 8 -10 4 -11 -4 -14 -2 -10 9 3 8 -1 14 -8 14 -8 0 -29 17
-48 37 -18 21 -30 32 -27 26 5 -9 2 -11 -8 -7 -9 3 -13 10 -10 15 3 5 -5 9
-16 9 -13 0 -24 8 -27 19 -3 11 -12 22 -20 26 -12 4 -13 2 -7 -8 5 -7 2 -5 -7
4 -13 14 -19 15 -29 6 -10 -9 -10 -7 0 13 12 23 12 24 -3 11 -14 -11 -17 -11
-17 -1 0 8 -3 10 -7 7 -3 -4 -12 -2 -20 4 -7 6 -13 9 -13 5 0 -3 -9 2 -20 11
-11 10 -20 23 -20 30 0 7 -7 13 -16 13 -8 0 -13 4 -9 9 3 5 -4 12 -15 16 -11
3 -20 13 -20 21 0 8 -4 12 -10 9 -5 -3 -10 -2 -10 3 0 5 -10 14 -22 20 -13 6
-17 11 -10 11 10 1 10 4 0 15 -9 10 -15 11 -20 2 -4 -6 -10 3 -14 22 -4 18
-11 35 -15 38 -5 3 -6 10 -3 16 4 7 2 8 -4 4 -8 -5 -12 1 -12 14 0 13 -4 19
-11 14 -7 -4 -10 -1 -7 7 3 8 -6 24 -18 36 -15 13 -20 24 -13 28 6 5 3 12 -8
22 -10 8 -11 11 -3 7 12 -7 13 -5 3 8 -7 8 -10 18 -6 22 4 4 0 4 -9 1 -13 -5
-15 -2 -11 16 5 17 3 21 -9 16 -21 -7 -31 3 -17 19 7 8 6 14 -2 19 -6 4 -15 1
-21 -6 -7 -12 -8 -11 -6 1 1 8 -3 26 -10 40 -12 23 -12 24 2 6 9 -11 16 -15
16 -8 0 6 -9 17 -20 25 -11 8 -17 17 -13 20 3 4 1 7 -7 7 -10 0 -10 4 1 17 10
11 10 14 2 9 -8 -4 -13 -2 -13 4 0 6 -5 8 -12 4 -8 -5 -8 -2 1 10 8 9 10 16 5
15 -21 -4 -28 2 -14 11 13 8 12 10 -2 10 -11 0 -18 8 -18 18 0 10 -5 23 -11
29 -8 8 -7 13 2 18 7 5 10 4 6 -2 -3 -5 0 -10 7 -10 8 0 12 6 9 14 -3 7 -9 13
-13 13 -4 0 -11 7 -14 16 -6 15 -4 15 11 3 17 -13 17 -13 0 7 -9 11 -14 24
-10 28 5 4 2 6 -6 4 -8 -2 -17 5 -19 16 -2 11 0 16 7 12 17 -11 13 4 -7 22
-10 10 -12 13 -5 8 19 -12 16 -2 -7 24 -16 18 -17 26 -8 44 10 20 10 20 -7 6
-17 -14 -18 -14 -6 9 11 19 11 22 0 16 -9 -6 -10 -3 -6 9 5 13 3 17 -6 13 -8
-3 -13 3 -14 14 -1 10 4 19 10 19 8 0 8 3 -1 9 -8 4 -12 17 -10 27 2 15 -3 19
-22 18 -23 -2 -23 -1 -6 12 18 13 18 14 2 20 -14 5 -15 9 -5 15 10 6 8 12 -9
27 -12 11 -22 26 -22 33 0 11 2 11 11 -1 8 -12 9 -10 4 9 -4 13 -8 30 -9 37
-1 7 -6 17 -11 21 -4 5 -5 1 0 -7 5 -9 5 -12 -1 -7 -10 9 -11 14 -13 55 -1 22
-3 24 -12 12 -9 -12 -10 -11 -4 5 11 33 11 39 -2 41 -7 1 -19 2 -25 3 -7 2 -4
6 7 11 16 7 16 9 4 9 -9 1 -20 8 -23 17 -5 14 -4 15 9 4 13 -11 14 -10 9 4 -3
9 -13 16 -21 16 -8 0 -11 5 -8 10 3 6 0 10 -7 10 -9 0 -9 3 2 10 11 7 11 10 2
10 -7 0 -11 4 -8 8 2 4 -9 23 -25 41 -16 18 -26 37 -23 42 3 5 0 9 -7 9 -8 0
-7 5 2 17 8 9 9 14 3 10 -6 -3 -26 5 -44 18 -19 14 -29 25 -22 25 7 0 12 7 12
15 0 8 -6 15 -14 15 -10 0 -12 7 -8 22 4 15 2 19 -7 14 -8 -5 -12 -3 -10 5 3
27 -1 40 -11 34 -5 -3 -10 1 -10 10 0 10 -5 14 -12 10 -7 -4 -4 1 6 9 16 13
17 16 4 16 -8 0 -22 8 -29 18 -13 15 -12 16 4 3 15 -12 17 -12 11 3 -3 9 -10
16 -15 16 -5 0 -9 9 -9 20 0 11 -7 20 -15 20 -14 0 -20 13 -16 34 1 5 -4 4
-13 -3 -12 -10 -16 -8 -21 8 -3 12 -13 21 -21 21 -8 0 -12 5 -9 10 4 6 3 10
-2 9 -21 -4 -44 2 -39 10 3 4 -5 8 -17 7 -12 -1 -33 6 -46 16 -13 10 -27 15
-32 12 -5 -3 -9 -1 -9 5 0 5 6 12 13 15 6 3 2 3 -10 0 -13 -3 -23 -1 -23 4 0
6 -15 9 -32 7 -18 -1 -43 2 -55 6 -18 7 -21 5 -16 -9 6 -15 5 -15 -10 -3 -9 7
-17 10 -17 7 0 -4 -9 -2 -20 4 -16 9 -18 8 -14 -5 5 -11 2 -13 -10 -9 -9 3
-14 10 -11 14 3 5 0 12 -6 16 -7 4 -9 3 -6 -2z m652 -553 c3 -5 2 -12 -3 -15
-5 -3 -9 1 -9 9 0 17 3 19 12 6z m-2384 -2264 c-10 -9 -11 -8 -5 6 3 10 9 15
12 12 3 -3 0 -11 -7 -18z m5410 -654 c13 -16 12 -17 -3 -4 -17 13 -22 21 -14
21 2 0 10 -8 17 -17z m220 -340 c13 -16 12 -17 -3 -4 -17 13 -22 21 -14 21 2
0 10 -8 17 -17z m376 -1203 c-1 -21 -10 -18 -13 5 -1 8 2 15 6 15 5 0 8 -9 7
-20z m-11552 -9530 c-3 -5 -12 -10 -18 -10 -7 0 -6 4 3 10 19 12 23 12 15 0z
m480 0 c-3 -5 -12 -10 -18 -10 -7 0 -6 4 3 10 19 12 23 12 15 0z m160 0 c-3
-5 -12 -10 -18 -10 -7 0 -6 4 3 10 19 12 23 12 15 0z m480 0 c-3 -5 -12 -10
-18 -10 -7 0 -6 4 3 10 19 12 23 12 15 0z m1120 0 c-3 -5 -12 -10 -18 -10 -7
0 -6 4 3 10 19 12 23 12 15 0z m480 0 c-3 -5 -12 -10 -18 -10 -7 0 -6 4 3 10
19 12 23 12 15 0z m1120 0 c-3 -5 -12 -10 -18 -10 -7 0 -6 4 3 10 19 12 23 12
15 0z m480 0 c-3 -5 -12 -10 -18 -10 -7 0 -6 4 3 10 19 12 23 12 15 0z m160 0
c-3 -5 -12 -10 -18 -10 -7 0 -6 4 3 10 19 12 23 12 15 0z m480 0 c-3 -5 -12
-10 -18 -10 -7 0 -6 4 3 10 19 12 23 12 15 0z m1120 0 c-3 -5 -12 -10 -18 -10
-7 0 -6 4 3 10 19 12 23 12 15 0z m480 0 c-3 -5 -12 -10 -18 -10 -7 0 -6 4 3
10 19 12 23 12 15 0z m2080 0 c-3 -5 -12 -10 -18 -10 -7 0 -6 4 3 10 19 12 23
12 15 0z m480 0 c-3 -5 -12 -10 -18 -10 -7 0 -6 4 3 10 19 12 23 12 15 0z
m1120 0 c-3 -5 -12 -10 -18 -10 -7 0 -6 4 3 10 19 12 23 12 15 0z"/>
<path d="M9986 15018 c3 -5 10 -6 15 -3 13 9 11 12 -6 12 -8 0 -12 -4 -9 -9z"/>
<path d="M10065 15020 c-3 -6 1 -7 9 -4 18 7 21 14 7 14 -6 0 -13 -4 -16 -10z"/>
<path d="M10206 14958 c3 -5 10 -6 15 -3 13 9 11 12 -6 12 -8 0 -12 -4 -9 -9z"/>
<path d="M8947 14659 c7 -7 15 -10 18 -7 3 3 -2 9 -12 12 -14 6 -15 5 -6 -5z"/>
<path d="M10495 14620 c-3 -5 -1 -10 4 -10 6 0 11 5 11 10 0 6 -2 10 -4 10 -3
0 -8 -4 -11 -10z"/>
<path d="M8566 14608 c3 -5 10 -6 15 -3 13 9 11 12 -6 12 -8 0 -12 -4 -9 -9z"/>
<path d="M8180 13459 c0 -5 5 -7 10 -4 6 3 10 8 10 11 0 2 -4 4 -10 4 -5 0
-10 -5 -10 -11z"/>
<path d="M11888 12683 c7 -3 16 -2 19 1 4 3 -2 6 -13 5 -11 0 -14 -3 -6 -6z"/>
<path d="M11980 12636 c0 -2 7 -9 15 -16 9 -7 15 -8 15 -2 0 5 -7 12 -15 16
-8 3 -15 4 -15 2z"/>
<path d="M8170 12259 c0 -5 5 -7 10 -4 6 3 10 8 10 11 0 2 -4 4 -10 4 -5 0
-10 -5 -10 -11z"/>
<path d="M1817 12053 c-12 -12 -7 -19 15 -20 13 -1 18 1 13 5 -6 4 -13 11 -16
15 -3 4 -9 4 -12 0z"/>
<path d="M1850 12020 c-9 -6 -10 -10 -3 -10 6 0 15 5 18 10 8 12 4 12 -15 0z"/>
<path d="M1870 12006 c0 -4 7 -14 15 -22 8 -9 15 -11 15 -6 0 5 -7 15 -15 22
-8 7 -15 9 -15 6z"/>
<path d="M1810 9319 c0 -5 5 -7 10 -4 6 3 10 8 10 11 0 2 -4 4 -10 4 -5 0 -10
-5 -10 -11z"/>
<path d="M14150 8940 c0 -5 5 -10 11 -10 5 0 7 5 4 10 -3 6 -8 10 -11 10 -2 0
-4 -4 -4 -10z"/>
<path d="M1816 8028 c3 -5 10 -6 15 -3 13 9 11 12 -6 12 -8 0 -12 -4 -9 -9z"/>
<path d="M13403 7545 c0 -8 4 -12 9 -9 5 3 6 10 3 15 -9 13 -12 11 -12 -6z"/>
<path d="M13403 7065 c0 -8 4 -12 9 -9 5 3 6 10 3 15 -9 13 -12 11 -12 -6z"/>
<path d="M13403 6825 c0 -8 4 -12 9 -9 5 3 6 10 3 15 -9 13 -12 11 -12 -6z"/>
<path d="M13403 5625 c0 -8 4 -12 9 -9 5 3 6 10 3 15 -9 13 -12 11 -12 -6z"/>
<path d="M13403 5145 c0 -8 4 -12 9 -9 5 3 6 10 3 15 -9 13 -12 11 -12 -6z"/>
<path d="M13403 4905 c0 -8 4 -12 9 -9 5 3 6 10 3 15 -9 13 -12 11 -12 -6z"/>
<path d="M1810 4839 c0 -5 5 -7 10 -4 6 3 10 8 10 11 0 2 -4 4 -10 4 -5 0 -10
-5 -10 -11z"/>
<path d="M1816 4188 c3 -5 10 -6 15 -3 13 9 11 12 -6 12 -8 0 -12 -4 -9 -9z"/>
<path d="M13403 3705 c0 -8 4 -12 9 -9 5 3 6 10 3 15 -9 13 -12 11 -12 -6z"/>
<path d="M13403 3225 c0 -8 4 -12 9 -9 5 3 6 10 3 15 -9 13 -12 11 -12 -6z"/>
<path d="M13403 2985 c0 -8 4 -12 9 -9 5 3 6 10 3 15 -9 13 -12 11 -12 -6z"/>
<path d="M1810 1639 c0 -5 5 -7 10 -4 6 3 10 8 10 11 0 2 -4 4 -10 4 -5 0 -10
-5 -10 -11z"/>
<path d="M13403 1145 c0 -8 4 -12 9 -9 5 3 6 10 3 15 -9 13 -12 11 -12 -6z"/>
<path d="M13403 905 c0 -8 4 -12 9 -9 5 3 6 10 3 15 -9 13 -12 11 -12 -6z"/>
<path d="M13343 529 c9 -6 14 -15 11 -21 -4 -7 -2 -8 4 -4 11 7 17 -6 13 -27
-1 -5 3 -6 8 -3 5 4 14 -1 19 -10 6 -11 11 -13 16 -5 4 6 2 11 -4 11 -6 0 -8
5 -4 12 4 6 3 8 -3 5 -5 -3 -20 7 -32 23 -12 17 -27 30 -34 30 -7 0 -4 -5 6
-11z"/>
<path d="M2522 471 c-11 -7 -11 -9 0 -14 9 -3 15 1 15 9 0 8 -1 14 -1 14 -1 0
-7 -4 -14 -9z"/>
<path d="M4122 471 c-11 -7 -11 -9 0 -14 9 -3 15 1 15 9 0 8 -1 14 -1 14 -1 0
-7 -4 -14 -9z"/>
<path d="M4442 471 c-11 -7 -11 -9 0 -14 9 -3 15 1 15 9 0 8 -1 14 -1 14 -1 0
-7 -4 -14 -9z"/>
<path d="M6042 471 c-11 -7 -11 -9 0 -14 9 -3 15 1 15 9 0 8 -1 14 -1 14 -1 0
-7 -4 -14 -9z"/>
<path d="M6362 471 c-11 -7 -11 -9 0 -14 9 -3 15 1 15 9 0 8 -1 14 -1 14 -1 0
-7 -4 -14 -9z"/>
<path d="M7962 471 c-11 -7 -11 -9 0 -14 9 -3 15 1 15 9 0 8 -1 14 -1 14 -1 0
-7 -4 -14 -9z"/>
<path d="M8282 471 c-11 -7 -11 -9 0 -14 9 -3 15 1 15 9 0 8 -1 14 -1 14 -1 0
-7 -4 -14 -9z"/>
<path d="M9882 471 c-11 -7 -11 -9 0 -14 9 -3 15 1 15 9 0 8 -1 14 -1 14 -1 0
-7 -4 -14 -9z"/>
<path d="M10202 471 c-11 -7 -11 -9 0 -14 9 -3 15 1 15 9 0 8 -1 14 -1 14 -1
0 -7 -4 -14 -9z"/>
<path d="M10522 471 c-11 -7 -11 -9 0 -14 9 -3 15 1 15 9 0 8 -1 14 -1 14 -1
0 -7 -4 -14 -9z"/>
<path d="M10842 471 c-11 -7 -11 -9 0 -14 9 -3 15 1 15 9 0 8 -1 14 -1 14 -1
0 -7 -4 -14 -9z"/>
<path d="M12442 471 c-11 -7 -11 -9 0 -14 9 -3 15 1 15 9 0 8 -1 14 -1 14 -1
0 -7 -4 -14 -9z"/>
<path d="M12762 471 c-11 -7 -11 -9 0 -14 9 -3 15 1 15 9 0 8 -1 14 -1 14 -1
0 -7 -4 -14 -9z"/>
<path d="M2310 466 c0 -2 7 -7 16 -10 8 -3 12 -2 9 4 -6 10 -25 14 -25 6z"/>
<path d="M2470 466 c0 -2 7 -7 16 -10 8 -3 12 -2 9 4 -6 10 -25 14 -25 6z"/>
<path d="M2586 462 c-3 -5 1 -9 9 -9 8 0 12 4 9 9 -3 4 -7 8 -9 8 -2 0 -6 -4
-9 -8z"/>
<path d="M2920 460 c-9 -6 -10 -10 -3 -10 6 0 15 5 18 10 8 12 4 12 -15 0z"/>
<path d="M3066 462 c-3 -5 1 -9 9 -9 8 0 12 4 9 9 -3 4 -7 8 -9 8 -2 0 -6 -4
-9 -8z"/>
<path d="M3226 462 c-3 -5 1 -9 9 -9 8 0 12 4 9 9 -3 4 -7 8 -9 8 -2 0 -6 -4
-9 -8z"/>
<path d="M3560 460 c-9 -6 -10 -10 -3 -10 6 0 15 5 18 10 8 12 4 12 -15 0z"/>
<path d="M3706 462 c-3 -5 1 -9 9 -9 8 0 12 4 9 9 -3 4 -7 8 -9 8 -2 0 -6 -4
-9 -8z"/>
<path d="M3910 466 c0 -2 7 -7 16 -10 8 -3 12 -2 9 4 -6 10 -25 14 -25 6z"/>
<path d="M4070 466 c0 -2 7 -7 16 -10 8 -3 12 -2 9 4 -6 10 -25 14 -25 6z"/>
<path d="M4230 466 c0 -2 7 -7 16 -10 8 -3 12 -2 9 4 -6 10 -25 14 -25 6z"/>
<path d="M4390 466 c0 -2 7 -7 16 -10 8 -3 12 -2 9 4 -6 10 -25 14 -25 6z"/>
<path d="M4680 460 c-9 -6 -10 -10 -3 -10 6 0 15 5 18 10 8 12 4 12 -15 0z"/>
<path d="M4826 462 c-3 -5 1 -9 9 -9 8 0 12 4 9 9 -3 4 -7 8 -9 8 -2 0 -6 -4
-9 -8z"/>
<path d="M5160 460 c-9 -6 -10 -10 -3 -10 6 0 15 5 18 10 8 12 4 12 -15 0z"/>
<path d="M5306 462 c-3 -5 1 -9 9 -9 8 0 12 4 9 9 -3 4 -7 8 -9 8 -2 0 -6 -4
-9 -8z"/>
<path d="M5640 460 c-9 -6 -10 -10 -3 -10 6 0 15 5 18 10 8 12 4 12 -15 0z"/>
<path d="M5830 466 c0 -2 7 -7 16 -10 8 -3 12 -2 9 4 -6 10 -25 14 -25 6z"/>
<path d="M5990 466 c0 -2 7 -7 16 -10 8 -3 12 -2 9 4 -6 10 -25 14 -25 6z"/>
<path d="M6150 466 c0 -2 7 -7 16 -10 8 -3 12 -2 9 4 -6 10 -25 14 -25 6z"/>
<path d="M6310 466 c0 -2 7 -7 16 -10 8 -3 12 -2 9 4 -6 10 -25 14 -25 6z"/>
<path d="M6426 462 c-3 -5 1 -9 9 -9 8 0 12 4 9 9 -3 4 -7 8 -9 8 -2 0 -6 -4
-9 -8z"/>
<path d="M6760 460 c-9 -6 -10 -10 -3 -10 6 0 15 5 18 10 8 12 4 12 -15 0z"/>
<path d="M6906 462 c-3 -5 1 -9 9 -9 8 0 12 4 9 9 -3 4 -7 8 -9 8 -2 0 -6 -4
-9 -8z"/>
<path d="M7066 462 c-3 -5 1 -9 9 -9 8 0 12 4 9 9 -3 4 -7 8 -9 8 -2 0 -6 -4
-9 -8z"/>
<path d="M7400 460 c-9 -6 -10 -10 -3 -10 6 0 15 5 18 10 8 12 4 12 -15 0z"/>
<path d="M7546 462 c-3 -5 1 -9 9 -9 8 0 12 4 9 9 -3 4 -7 8 -9 8 -2 0 -6 -4
-9 -8z"/>
<path d="M7750 466 c0 -2 7 -7 16 -10 8 -3 12 -2 9 4 -6 10 -25 14 -25 6z"/>
<path d="M7910 466 c0 -2 7 -7 16 -10 8 -3 12 -2 9 4 -6 10 -25 14 -25 6z"/>
<path d="M8070 466 c0 -2 7 -7 16 -10 8 -3 12 -2 9 4 -6 10 -25 14 -25 6z"/>
<path d="M8230 466 c0 -2 7 -7 16 -10 8 -3 12 -2 9 4 -6 10 -25 14 -25 6z"/>
<path d="M8520 460 c-9 -6 -10 -10 -3 -10 6 0 15 5 18 10 8 12 4 12 -15 0z"/>
<path d="M8666 462 c-3 -5 1 -9 9 -9 8 0 12 4 9 9 -3 4 -7 8 -9 8 -2 0 -6 -4
-9 -8z"/>
<path d="M9000 460 c-9 -6 -10 -10 -3 -10 6 0 15 5 18 10 8 12 4 12 -15 0z"/>
<path d="M9146 462 c-3 -5 1 -9 9 -9 8 0 12 4 9 9 -3 4 -7 8 -9 8 -2 0 -6 -4
-9 -8z"/>
<path d="M9480 460 c-9 -6 -10 -10 -3 -10 6 0 15 5 18 10 8 12 4 12 -15 0z"/>
<path d="M9670 466 c0 -2 7 -7 16 -10 8 -3 12 -2 9 4 -6 10 -25 14 -25 6z"/>
<path d="M9830 466 c0 -2 7 -7 16 -10 8 -3 12 -2 9 4 -6 10 -25 14 -25 6z"/>
<path d="M9990 466 c0 -2 7 -7 16 -10 8 -3 12 -2 9 4 -6 10 -25 14 -25 6z"/>
<path d="M10150 466 c0 -2 7 -7 16 -10 8 -3 12 -2 9 4 -6 10 -25 14 -25 6z"/>
<path d="M10310 466 c0 -2 7 -7 16 -10 8 -3 12 -2 9 4 -6 10 -25 14 -25 6z"/>
<path d="M10470 466 c0 -2 7 -7 16 -10 8 -3 12 -2 9 4 -6 10 -25 14 -25 6z"/>
<path d="M10630 466 c0 -2 7 -7 16 -10 8 -3 12 -2 9 4 -6 10 -25 14 -25 6z"/>
<path d="M10790 466 c0 -2 7 -7 16 -10 8 -3 12 -2 9 4 -6 10 -25 14 -25 6z"/>
<path d="M11080 460 c-9 -6 -10 -10 -3 -10 6 0 15 5 18 10 8 12 4 12 -15 0z"/>
<path d="M11226 462 c-3 -5 1 -9 9 -9 8 0 12 4 9 9 -3 4 -7 8 -9 8 -2 0 -6 -4
-9 -8z"/>
<path d="M11560 460 c-9 -6 -10 -10 -3 -10 6 0 15 5 18 10 8 12 4 12 -15 0z"/>
<path d="M11706 462 c-3 -5 1 -9 9 -9 8 0 12 4 9 9 -3 4 -7 8 -9 8 -2 0 -6 -4
-9 -8z"/>
<path d="M12040 460 c-9 -6 -10 -10 -3 -10 6 0 15 5 18 10 8 12 4 12 -15 0z"/>
<path d="M12230 466 c0 -2 7 -7 16 -10 8 -3 12 -2 9 4 -6 10 -25 14 -25 6z"/>
<path d="M12390 466 c0 -2 7 -7 16 -10 8 -3 12 -2 9 4 -6 10 -25 14 -25 6z"/>
<path d="M12550 466 c0 -2 7 -7 16 -10 8 -3 12 -2 9 4 -6 10 -25 14 -25 6z"/>
<path d="M12710 466 c0 -2 7 -7 16 -10 8 -3 12 -2 9 4 -6 10 -25 14 -25 6z"/>
<path d="M12826 462 c-3 -5 1 -9 9 -9 8 0 12 4 9 9 -3 4 -7 8 -9 8 -2 0 -6 -4
-9 -8z"/>
</g>
</svg>
